<svg width="25" height="25" viewBox="0 0 25 25" fill="none" xmlns="http://www.w3.org/2000/svg">
<path d="M19.7117 0H5.28861C3.9665 0 2.88477 1.08173 2.88477 2.40385V19.7115C2.88477 20.4567 3.29342 21.0817 3.87034 21.5144C3.87034 21.5385 3.8463 21.5865 3.8463 21.6346V23.3173C3.8463 24.2548 4.5915 25 5.529 25H6.00977C6.94727 25 7.69246 24.2548 7.69246 23.3173V22.1154H17.3078V23.3173C17.3078 24.2548 18.053 25 18.9905 25H19.4713C20.4088 25 21.154 24.2548 21.154 23.3173V21.6346C21.7309 21.2019 22.1155 20.5048 22.1155 19.7115V2.40385C22.1155 1.08173 21.0338 0 19.7117 0ZM6.73092 23.3173C6.73092 23.726 6.41842 24.0385 6.00977 24.0385H5.529C5.12034 24.0385 4.80784 23.726 4.80784 23.3173V21.9952C5.04823 22.0673 5.28861 22.1154 5.529 22.1154H6.73092V23.3173ZM20.1925 23.3173C20.1925 23.726 19.88 24.0385 19.4713 24.0385H18.9905C18.5819 24.0385 18.2694 23.726 18.2694 23.3173V22.1154H19.7117C19.88 22.1154 20.0482 22.0913 20.1925 22.0673V23.3173ZM21.154 19.7115C21.154 20.5048 20.505 21.1538 19.7117 21.1538H5.529C4.75977 21.1538 3.8463 20.5048 3.8463 19.7115V15.3846H21.154V19.7115ZM21.154 14.4231H3.8463V4.80769H21.154V14.4231ZM21.154 3.84615H3.8463V2.40385C3.8463 1.61058 4.49534 0.961538 5.28861 0.961538H19.7117C20.505 0.961538 21.154 1.61058 21.154 2.40385V3.84615Z" fill="#FF8A00"/>
<path d="M6.49016 19.4712C7.28343 19.4712 7.93247 18.8221 7.93247 18.0289C7.93247 17.2356 7.28343 16.5865 6.49016 16.5865C5.69689 16.5865 5.04785 17.2356 5.04785 18.0289C5.04785 18.8221 5.69689 19.4712 6.49016 19.4712ZM6.49016 17.5481C6.75458 17.5481 6.97093 17.7644 6.97093 18.0289C6.97093 18.2933 6.75458 18.5096 6.49016 18.5096C6.22574 18.5096 6.00939 18.2933 6.00939 18.0289C6.00939 17.7644 6.22574 17.5481 6.49016 17.5481Z" fill="#FF8A00"/>
<path d="M18.5097 19.4712C19.303 19.4712 19.952 18.8221 19.952 18.0289C19.952 17.2356 19.303 16.5865 18.5097 16.5865C17.7164 16.5865 17.0674 17.2356 17.0674 18.0289C17.0674 18.8221 17.7164 19.4712 18.5097 19.4712ZM18.5097 17.5481C18.7741 17.5481 18.9905 17.7644 18.9905 18.0289C18.9905 18.2933 18.7741 18.5096 18.5097 18.5096C18.2453 18.5096 18.0289 18.2933 18.0289 18.0289C18.0289 17.7644 18.2453 17.5481 18.5097 17.5481Z" fill="#FF8A00"/>
<rect x="0.6" y="3.6" width="2.8" height="4.8" rx="1.4" stroke="#FF8A00" stroke-width="0.8"/>
<rect x="21.6" y="3.6" width="2.8" height="4.8" rx="1.4" stroke="#FF8A00" stroke-width="0.8"/>
</svg>
