<svg width="24" height="26" viewBox="0 0 24 26" fill="none" xmlns="http://www.w3.org/2000/svg">
<path d="M23.0936 2.66805H20.4585V2.10156C20.4585 1.71306 20.3042 1.34047 20.0295 1.06576C19.7548 0.79105 19.3822 0.636719 18.9937 0.636719C18.6052 0.636719 18.2326 0.79105 17.9579 1.06576C17.6832 1.34047 17.5288 1.71306 17.5288 2.10156V2.66805H6.47102V2.10156C6.47102 1.71306 6.31668 1.34047 6.04197 1.06576C5.76726 0.79105 5.39467 0.636719 5.00617 0.636719C4.61767 0.636719 4.24508 0.79105 3.97037 1.06576C3.69566 1.34047 3.54133 1.71306 3.54133 2.10156V2.66805H0.90625C0.852379 2.66802 0.79903 2.6786 0.749254 2.69921C0.699477 2.71981 0.65425 2.75002 0.616157 2.78811C0.578064 2.8262 0.547854 2.87143 0.527252 2.92121C0.506651 2.97098 0.496063 3.02433 0.496094 3.0782V24.9531C0.496094 25.0619 0.539307 25.1662 0.616226 25.2431C0.693145 25.3201 0.79747 25.3633 0.90625 25.3633H19.6757C19.7845 25.3632 19.8887 25.32 19.9656 25.243L23.3837 21.8252C23.4218 21.7871 23.452 21.7419 23.4726 21.6921C23.4932 21.6424 23.5038 21.5891 23.5037 21.5352V3.0782C23.5038 3.02433 23.4932 2.97098 23.4726 2.92121C23.452 2.87143 23.4218 2.8262 23.3837 2.78811C23.3456 2.75002 23.3004 2.71981 23.2506 2.69921C23.2008 2.6786 23.1475 2.66802 23.0936 2.66805ZM18.3491 2.10156C18.3491 1.93062 18.417 1.76668 18.5379 1.64581C18.6588 1.52494 18.8227 1.45703 18.9937 1.45703C19.1646 1.45703 19.3286 1.52494 19.4494 1.64581C19.5703 1.76668 19.6382 1.93062 19.6382 2.10156V4.05461C19.6382 4.22555 19.5703 4.38949 19.4494 4.51036C19.3286 4.63123 19.1646 4.69914 18.9937 4.69914C18.8227 4.69914 18.6588 4.63123 18.5379 4.51036C18.417 4.38949 18.3491 4.22555 18.3491 4.05461V2.10156ZM4.36164 2.10156C4.36164 1.93062 4.42955 1.76668 4.55042 1.64581C4.67129 1.52494 4.83523 1.45703 5.00617 1.45703C5.17711 1.45703 5.34105 1.52494 5.46192 1.64581C5.5828 1.76668 5.6507 1.93062 5.6507 2.10156V4.05461C5.6507 4.22555 5.5828 4.38949 5.46192 4.51036C5.34105 4.63123 5.17711 4.69914 5.00617 4.69914C4.83523 4.69914 4.67129 4.63123 4.55042 4.51036C4.42955 4.38949 4.36164 4.22555 4.36164 4.05461V2.10156ZM1.31641 3.48836H3.54133V4.05461C3.54133 4.44311 3.69566 4.8157 3.97037 5.09041C4.24508 5.36512 4.61767 5.51945 5.00617 5.51945C5.39467 5.51945 5.76726 5.36512 6.04197 5.09041C6.31668 4.8157 6.47102 4.44311 6.47102 4.05461V3.48836H17.5288V4.05461C17.5288 4.44311 17.6832 4.8157 17.9579 5.09041C18.2326 5.36512 18.6052 5.51945 18.9937 5.51945C19.3822 5.51945 19.7548 5.36512 20.0295 5.09041C20.3042 4.8157 20.4585 4.44311 20.4585 4.05461V3.48836H22.6834V8.19531H1.31641V3.48836ZM1.31641 9.01469H22.6834V21.1251H19.6757C19.5669 21.1251 19.4626 21.1683 19.3857 21.2452C19.3088 21.3221 19.2655 21.4265 19.2655 21.5352V24.543H1.31641V9.01469ZM22.1036 21.9454L20.0859 23.9629V21.9454H22.1036Z" fill="#FF8A00"/>
</svg>
