<svg width="34" height="34" viewBox="0 0 34 34" fill="none" xmlns="http://www.w3.org/2000/svg">
<path d="M29.4665 20.4H30.0331C30.3461 20.4 30.5998 20.1463 30.5998 19.8333C30.5998 19.5204 30.3461 19.2667 30.0331 19.2667H27.7665V18.1333C27.7665 17.8204 27.5128 17.5667 27.1998 17.5667C26.8868 17.5667 26.6331 17.8204 26.6331 18.1333V19.2667H24.3665C24.0535 19.2667 23.7998 19.5204 23.7998 19.8333C23.7998 20.1463 24.0535 20.4 24.3665 20.4H28.3331V21.5333C28.3331 22.4251 27.9133 23.2649 27.1998 23.8C26.7578 23.4671 26.4229 23.012 26.2365 22.491C26.124 22.2056 25.8049 22.0615 25.5165 22.1658C25.2281 22.2702 25.075 22.5851 25.1711 22.8763C25.3608 23.4141 25.6665 23.9036 26.0665 24.31C25.5031 24.3857 24.9336 24.4047 24.3665 24.3667C24.0535 24.3667 23.7998 24.6204 23.7998 24.9333C23.7998 25.2463 24.0535 25.5 24.3665 25.5C25.5508 25.5 26.2308 25.5737 27.1998 25.109C28.1801 25.5737 28.8375 25.5 30.0331 25.5C30.3461 25.5 30.5998 25.2463 30.5998 24.9333C30.5998 24.6204 30.3461 24.3667 30.0331 24.3667C29.4659 24.4107 28.8956 24.3898 28.3331 24.3043C29.6138 22.9953 29.4665 21.6297 29.4665 20.4Z" fill="#FF8F0C"/>
<path d="M0.566667 34H19.8333C20.1463 34 20.4 33.7463 20.4 33.4333V32.98C20.4025 31.555 19.6296 30.2415 18.3827 29.5517L14.5237 27.1377C13.9599 26.8257 13.6071 26.235 13.6 25.5907V23.8C14.6344 22.7896 15.3814 21.5223 15.7647 20.128C16.1773 19.8566 16.4279 19.3978 16.4333 18.904V16.949C16.4043 16.5248 16.1987 16.1322 15.8667 15.8667V12.9937C15.8667 12.8067 15.47 8.5 10.2 8.5C4.93 8.5 4.53333 12.8463 4.53333 13.0673V15.8667C4.19986 16.1335 3.99416 16.5285 3.96667 16.9547V18.9097C3.96959 19.4086 4.22293 19.8727 4.641 20.145C5.01924 21.5352 5.76504 22.7978 6.8 23.8V25.5907C6.79712 26.269 6.41703 26.8894 5.814 27.2L2.074 29.546C0.812125 30.231 0.0188928 31.5443 0 32.98V33.4333C0 33.7463 0.253705 34 0.566667 34ZM2.64633 30.498L6.38633 28.1463C7.33199 27.643 7.92583 26.6619 7.93333 25.5907V23.8C7.9339 23.4839 7.80243 23.1819 7.57067 22.967C6.70238 22.1174 6.07306 21.0543 5.746 19.8843C5.593 19.21 5.1 19.2667 5.1 18.904V16.9603C5.14267 16.861 5.20878 16.7735 5.29267 16.7053C5.53008 16.4911 5.66591 16.1865 5.66667 15.8667V13.107C5.66667 12.75 6.01233 9.63333 10.2 9.63333C14.3877 9.63333 14.7333 12.7217 14.7333 13.0333V15.8667C14.7333 16.5637 15.2377 16.7223 15.3 16.949V18.904C15.2996 19.0195 15.2396 19.1266 15.1413 19.1873C14.8946 19.3476 14.7198 19.5975 14.654 19.8843C14.3269 21.0543 13.6976 22.1174 12.8293 22.967C12.5976 23.1819 12.4661 23.4839 12.4667 23.8V25.5907C12.4643 26.6392 13.0334 27.6057 13.9513 28.1123L17.8103 30.532C18.6712 31.0015 19.2236 31.8871 19.2667 32.8667H1.13333C1.1829 31.865 1.75833 30.9641 2.64633 30.498Z" fill="#FF8F0C"/>
<path d="M31.1672 15.3H23.2338C21.669 15.3 20.4005 16.5685 20.4005 18.1333V18.9607L17.2555 21.063C17.0988 21.1683 17.0049 21.3446 17.0049 21.5333C17.0049 21.722 17.0988 21.8984 17.2555 22.0037L20.4005 24.106V24.9333C20.4005 26.4981 21.669 27.7667 23.2338 27.7667H31.1672C32.732 27.7667 34.0005 26.4981 34.0005 24.9333V18.1333C34.0005 16.5685 32.732 15.3 31.1672 15.3ZM32.8672 24.9333C32.8672 25.8722 32.106 26.6333 31.1672 26.6333H23.2338C22.2949 26.6333 21.5338 25.8722 21.5338 24.9333V23.8C21.5328 23.6104 21.4371 23.4339 21.2788 23.3297L18.5872 21.5333L21.2788 19.737C21.4371 19.6327 21.5328 19.4562 21.5338 19.2667V18.1333C21.5338 17.1944 22.2949 16.4333 23.2338 16.4333H31.1672C32.106 16.4333 32.8672 17.1944 32.8672 18.1333V24.9333Z" fill="#FF8F0C"/>
<path d="M31.1672 0H23.2338C21.669 0 20.4005 1.26853 20.4005 2.83333V3.66067L17.2555 5.763C17.0988 5.86827 17.0049 6.04461 17.0049 6.23333C17.0049 6.42206 17.0988 6.5984 17.2555 6.70367L20.4005 8.806V9.63334C20.4005 11.1981 21.669 12.4667 23.2338 12.4667H31.1672C32.732 12.4667 34.0005 11.1981 34.0005 9.63334V2.83333C34.0005 1.26853 32.732 0 31.1672 0ZM32.8672 9.63334C32.8672 10.5722 32.106 11.3333 31.1672 11.3333H23.2338C22.2949 11.3333 21.5338 10.5722 21.5338 9.63334V8.5C21.5328 8.31044 21.4371 8.13393 21.2788 8.02967L18.5872 6.23333L21.2788 4.437C21.4371 4.33274 21.5328 4.15623 21.5338 3.96667V2.83333C21.5338 1.89445 22.2949 1.13333 23.2338 1.13333H31.1672C32.106 1.13333 32.8672 1.89445 32.8672 2.83333V9.63334Z" fill="#FF8F0C"/>
<path d="M27.1998 2.26666C25.322 2.26666 23.7998 3.78889 23.7998 5.66666V9.63333C23.7998 9.94629 24.0535 10.2 24.3665 10.2C24.6794 10.2 24.9331 9.94629 24.9331 9.63333V7.36666H29.4665V9.63333C29.4665 9.94629 29.7202 10.2 30.0331 10.2C30.3461 10.2 30.5998 9.94629 30.5998 9.63333V5.66666C30.5998 3.78889 29.0776 2.26666 27.1998 2.26666ZM24.9331 6.23333V5.66666C24.9331 4.41482 25.948 3.4 27.1998 3.4C28.4516 3.4 29.4665 4.41482 29.4665 5.66666V6.23333H24.9331Z" fill="#FF8F0C"/>
</svg>
