<svg width="50" height="49" viewBox="0 0 50 49" fill="none" xmlns="http://www.w3.org/2000/svg">
<path d="M5.06449 15.3111L5.06455 15.3111L15.4334 13.8077L16.0838 13.7134L16.3748 13.1241L21.0143 3.72926C21.7712 2.19665 23.2945 1.25 25.0037 1.25L25.0037 1.25L25.0037 1.25L25.0037 1.25L25.0037 1.25L25.0038 1.25L25.0038 1.25L25.0038 1.25L25.0038 1.25L25.0038 1.25L25.0038 1.25L25.0039 1.25L25.0039 1.25L25.0039 1.25L25.0039 1.25L25.0039 1.25L25.0039 1.25L25.004 1.25L25.004 1.25L25.004 1.25L25.004 1.25L25.004 1.25L25.004 1.25L25.004 1.25L25.0041 1.25L25.0041 1.25L25.0041 1.25L25.0041 1.25L25.0041 1.25L25.0041 1.25L25.0042 1.25L25.0042 1.25L25.0042 1.25L25.0042 1.25L25.0042 1.25L25.0042 1.25L25.0043 1.25L25.0043 1.25L25.0043 1.25L25.0043 1.25L25.0043 1.25L25.0043 1.25L25.0044 1.25L25.0044 1.25L25.0044 1.25L25.0044 1.25L25.0044 1.25L25.0044 1.25L25.0045 1.25L25.0045 1.25L25.0045 1.25L25.0045 1.25L25.0045 1.25L25.0045 1.25L25.0046 1.25L25.0046 1.25L25.0046 1.25L25.0046 1.25L25.0046 1.25L25.0046 1.25L25.0046 1.25L25.0047 1.25L25.0047 1.25L25.0047 1.25L25.0047 1.25L25.0047 1.25L25.0047 1.25L25.0048 1.25L25.0048 1.25L25.0048 1.25L25.0048 1.25L25.0048 1.25L25.0048 1.25L25.0048 1.25L25.0049 1.25L25.0049 1.25L25.0049 1.25L25.0049 1.25L25.0049 1.25L25.0049 1.25L25.005 1.25L25.005 1.25L25.005 1.25L25.005 1.25L25.005 1.25L25.005 1.25L25.0051 1.25L25.0051 1.25L25.0051 1.25L25.0051 1.25L25.0051 1.25L25.0051 1.25L25.0051 1.25L25.0052 1.25L25.0052 1.25L5.06449 15.3111ZM5.06449 15.3111C3.37276 15.5563 2.00091 16.7126 1.4723 18.3384C0.943709 19.9642 1.37332 21.7061 2.59708 22.8997C2.59709 22.8997 2.5971 22.8997 2.59711 22.8997L10.0979 30.215L10.5684 30.6739L10.4571 31.3215L8.68319 41.6477L8.68317 41.6479C8.39347 43.3328 9.06901 44.9946 10.4518 46L10.4519 46.0001C11.8346 47.0056 13.624 47.1356 15.1368 46.3403L15.1371 46.3401L24.4125 41.467L24.9942 41.1613L25.5758 41.4673L34.8485 46.345C34.8486 46.3451 34.8487 46.3451 34.8488 46.3452C35.5104 46.6929 36.2216 46.8626 36.9257 46.8626C37.8393 46.8626 38.7501 46.5773 39.534 46.0078L39.5343 46.0076C40.9172 45.0035 41.5938 43.3418 41.3054 41.6566C41.3054 41.6565 41.3054 41.6565 41.3054 41.6564L39.5369 31.3293L39.426 30.6816L39.8967 30.223L47.4012 22.9118C48.6256 21.719 49.0562 19.9773 48.5284 18.3514L48.5284 18.3511C48.0009 16.725 46.6294 15.5681 44.9377 15.3218L34.5695 13.8123L33.9192 13.7177L33.6285 13.1283L28.9941 3.73136L28.994 3.73127M5.06449 15.3111L28.994 3.73127M28.994 3.73127C28.238 2.19798 26.7145 1.25033 25.0054 1.25L28.994 3.73127ZM13.4824 27.5513L13.4821 27.5511L7.13231 21.358L5.3192 19.5896L7.82566 19.2261L16.6035 17.9529C18.0541 17.7422 19.3063 16.8325 19.9545 15.5194L19.9546 15.5192L23.8822 7.56647L25.0037 5.2956L26.1241 7.56706L30.0476 15.5221C30.0476 15.5222 30.0476 15.5222 30.0476 15.5222C30.6957 16.836 31.9478 17.7461 33.3968 17.9574C33.3969 17.9574 33.3969 17.9574 33.397 17.9574L42.1745 19.235L44.6809 19.5998L42.8668 21.3673L36.5136 27.5569L36.5135 27.557C35.4643 28.579 34.9857 30.0506 35.2326 31.4947L36.7298 40.2376L37.1574 42.7341L34.9158 41.5549L27.0656 37.4251L27.0653 37.425C25.77 36.7431 24.2218 36.7426 22.9243 37.4244L22.9242 37.4244L15.0724 41.5497L12.8302 42.7278L13.259 40.2315L14.7607 31.4898C14.7607 31.4898 14.7607 31.4897 14.7607 31.4897C15.0087 30.0452 14.5307 28.5732 13.4824 27.5513Z" fill="#FF8A00" stroke="white" stroke-width="2.5"/>
<path d="M19.8549 31C19.6229 31 19.4429 30.936 19.3149 30.808C19.1869 30.68 19.1229 30.504 19.1229 30.28V23.248C19.1229 23.016 19.1909 22.832 19.3269 22.696C19.4709 22.552 19.6589 22.48 19.8909 22.48C20.1309 22.48 20.3189 22.552 20.4549 22.696C20.5989 22.832 20.6709 23.016 20.6709 23.248V29.728H24.0429C24.5229 29.728 24.7629 29.94 24.7629 30.364C24.7629 30.788 24.5229 31 24.0429 31H19.8549ZM26.5472 31.072C26.3152 31.072 26.1272 31.004 25.9832 30.868C25.8472 30.724 25.7792 30.532 25.7792 30.292V23.272C25.7792 23.04 25.8432 22.86 25.9712 22.732C26.1072 22.604 26.2912 22.54 26.5232 22.54H29.4752C30.3792 22.54 31.0832 22.768 31.5872 23.224C32.0912 23.672 32.3432 24.304 32.3432 25.12C32.3432 25.936 32.0912 26.572 31.5872 27.028C31.0832 27.484 30.3792 27.712 29.4752 27.712H27.3272V30.292C27.3272 30.532 27.2552 30.724 27.1112 30.868C26.9752 31.004 26.7872 31.072 26.5472 31.072ZM29.2832 26.524C30.3472 26.524 30.8792 26.06 30.8792 25.132C30.8792 24.204 30.3472 23.74 29.2832 23.74H27.3272V26.524H29.2832Z" fill="#FF8A00"/>
</svg>
