<svg width="30" height="30" viewBox="0 0 30 30" fill="none" xmlns="http://www.w3.org/2000/svg">
<path d="M15 1C7.28008 1 1 7.28008 1 15C1 22.7199 7.28008 29 15 29C22.7199 29 29 22.7199 29 15C29 7.28008 22.7199 1 15 1ZM15 27.9231C7.87454 27.9231 2.07692 22.1255 2.07692 15C2.07692 7.87454 7.87454 2.07692 15 2.07692C22.1255 2.07692 27.9231 7.87454 27.9231 15C27.9231 22.1255 22.1255 27.9231 15 27.9231Z" fill="#FF8A00" stroke="#FF8A00" stroke-width="0.5"/>
<path d="M15.0004 20.9231C14.7026 20.9231 14.4619 21.1638 14.4619 21.4616V22.5385C14.4619 22.8363 14.7026 23.0769 15.0004 23.0769C15.2981 23.0769 15.5388 22.8363 15.5388 22.5385V21.4616C15.5388 21.1638 15.2981 20.9231 15.0004 20.9231Z" fill="#FF8A00" stroke="#FF8A00" stroke-width="0.5"/>
<path d="M15.0609 5.84673C15.0405 5.84673 15.02 5.84619 14.999 5.84619C13.8596 5.84619 12.7881 6.28504 11.9755 7.08681C11.1485 7.90258 10.6924 8.99188 10.6924 10.1539C10.6924 10.4517 10.9331 10.6923 11.2308 10.6923C11.5286 10.6923 11.7693 10.4517 11.7693 10.1539C11.7693 9.28265 12.1112 8.46527 12.7315 7.85358C13.3524 7.24135 14.1789 6.90319 15.0464 6.92365C16.7485 6.94735 18.2066 8.4055 18.2303 10.1076C18.2459 11.2297 17.6924 12.2625 16.749 12.871C15.3167 13.795 14.4616 15.4276 14.4616 17.239V18.7693C14.4616 19.067 14.7023 19.3077 15.0001 19.3077C15.2978 19.3077 15.5385 19.067 15.5385 18.7693V17.239C15.5385 15.8163 16.2256 14.4901 17.3327 13.7756C18.59 12.9647 19.3282 11.5878 19.3072 10.0925C19.2749 7.78411 17.3698 5.87904 15.0609 5.84673Z" fill="#FF8A00" stroke="#FF8A00" stroke-width="0.5"/>
</svg>
