<svg width="53" height="53" viewBox="0 0 53 53" fill="none" xmlns="http://www.w3.org/2000/svg">
<g clip-path="url(#clip0)">
<path d="M32.6804 17.4942C32.6804 18.0101 32.2607 18.4293 31.7432 18.4293C31.2247 18.4293 30.8061 18.0102 30.8061 17.4942C30.8061 16.9782 31.2247 16.559 31.7432 16.559C32.2607 16.559 32.6804 16.9782 32.6804 17.4942Z" fill="#FF8A00" stroke="white" stroke-width="0.2"/>
<path d="M22.3083 17.4942C22.3083 18.0101 21.8886 18.4293 21.3712 18.4293C20.8526 18.4293 20.434 18.0102 20.434 17.4942C20.434 16.9782 20.8526 16.559 21.3712 16.559C21.8886 16.559 22.3083 16.9782 22.3083 17.4942Z" fill="#FF8A00" stroke="white" stroke-width="0.2"/>
<path d="M28.4511 23.8793L28.451 23.8793C27.8549 24.1526 27.2171 24.2915 26.5566 24.2915C25.8812 24.2915 25.2314 24.1472 24.626 23.8623M28.4511 23.8793L29.6944 24.3381C29.9103 24.8074 29.7047 25.3626 29.2342 25.5786C28.3905 25.9656 27.4899 26.1618 26.5566 26.1618C25.6025 26.1618 24.684 25.9572 23.8267 25.5539C23.3585 25.3336 23.158 24.7765 23.3787 24.3094L23.3787 24.3094C23.599 23.8423 24.1576 23.6419 24.626 23.8623M28.4511 23.8793C28.9216 23.6633 29.4781 23.8691 29.6944 24.338L28.4511 23.8793ZM24.626 23.8623L24.6686 23.7718L24.626 23.8623C24.626 23.8623 24.626 23.8623 24.626 23.8623Z" fill="#FF8A00" stroke="white" stroke-width="0.2"/>
<path d="M15.5521 33.5139L15.5807 33.5781L19.4612 42.2803C19.5652 42.5133 19.7603 42.6942 20.0012 42.7804C20.242 42.8666 20.5074 42.8506 20.7368 42.7366L15.5521 33.5139ZM15.5521 33.5139L15.482 33.5191C13.1907 33.6881 10.7386 34.7009 8.85832 36.2078C6.97922 37.7138 5.65649 39.7263 5.65649 41.9001V50.8263V50.9263H5.75649H21.0096H21.0888L21.1069 50.8492L22.4593 45.0951L22.4656 45.0681L22.4571 45.0416L21.6156 42.4262L21.58 42.3153L21.4758 42.3674L20.7369 42.7365L15.5521 33.5139ZM37.3015 31.6067L37.3284 31.6309L37.3645 31.6322C40.1252 31.7371 43.1207 32.8973 45.4251 34.739C47.7297 36.5809 49.3312 39.0939 49.3312 41.9001V51.8614C49.3312 52.3778 48.9118 52.7966 48.394 52.7966H4.71931C4.20147 52.7966 3.78213 52.3778 3.78213 51.8614V41.9001C3.78213 39.088 5.38657 36.575 7.69269 34.7345C9.99864 32.8942 12.9942 31.7369 15.7488 31.6322L15.7849 31.6309L15.8118 31.6067L18.6738 29.0403L18.7653 28.9582L18.6663 28.8853C15.2771 26.3893 13.2205 22.3783 13.2205 18.1153V11.2832C13.2205 5.04158 18.2459 -0.00351562 24.493 -0.00351562H28.6418C34.898 -0.00351562 39.9872 5.06046 39.9872 11.2832V18.1153C39.9872 22.3851 37.9031 26.4037 34.4689 28.9044L34.369 28.9772L34.461 29.0597L37.3015 31.6067ZM24.2593 45.9645H24.18L24.1619 46.0417L23.0429 50.8034L23.014 50.9263H23.1402H29.9358H30.0612L30.0333 50.804L28.9459 46.0423L28.9281 45.9645H28.8484H24.2593ZM28.9375 44.0942H29.0087L29.032 44.027L29.8787 41.5871L29.9076 41.5041L29.8289 41.4649L26.6019 39.8539L26.5573 39.8316L26.5126 39.8539L23.3533 41.4305L23.2764 41.4688L23.3027 41.5506L24.0984 44.0248L24.1207 44.0942H24.1936H28.9375ZM26.4721 36.8861L26.5569 37.0214L26.6416 36.8861L30.2401 31.1402L30.3763 30.9228L30.1289 30.9907C28.973 31.3078 27.7746 31.4719 26.5674 31.4719C25.3485 31.4719 24.1413 31.3046 22.9794 30.9822L22.7312 30.9134L22.8679 31.1317L26.4721 36.8861ZM27.9566 38.3165L27.8981 38.4099L27.9967 38.4591L32.2446 40.5795L32.3381 40.6262L32.3806 40.5308L35.7981 32.8662L35.8277 32.7996L35.7735 32.751L33.0878 30.3426L32.9993 30.2633L32.9363 30.364L27.9566 38.3165ZM37.9308 12.196L38.1129 12.4577V12.1388V11.2832C38.1129 6.09007 33.8637 1.8668 28.6418 1.8668H24.493C19.3104 1.8668 15.0948 6.0908 15.0948 11.2832V12.0499V12.3733L15.2774 12.1063L17.1257 9.40319L17.1257 9.40314C17.2838 9.17161 17.5378 9.02323 17.8176 8.99874C18.0971 8.97425 18.3735 9.07591 18.5696 9.27637L18.5696 9.27645C20.7007 11.4499 23.1691 12.4184 26.5573 12.4184C29.9459 12.4184 32.4138 11.4499 34.5433 9.27643C34.7388 9.07693 35.0126 8.97498 35.2916 8.99837C35.5703 9.02177 35.824 9.16798 35.9832 9.39695L35.9832 9.39699L37.9308 12.196ZM15.1123 15.6662L15.0948 15.6918V15.7227V18.1153C15.0948 24.385 20.1634 29.602 26.5674 29.602C32.9915 29.602 38.1129 24.3694 38.1129 18.1153V15.7688V15.7374L38.0949 15.7117L35.1272 11.4465L35.0643 11.356L34.9803 11.4274C32.6929 13.373 29.9879 14.2887 26.5573 14.2887C23.1303 14.2887 20.4272 13.375 18.1402 11.4334L18.0556 11.3616L17.9929 11.4532L15.1123 15.6662ZM20.177 30.3644L20.114 30.2637L20.0255 30.343L17.3398 32.751L17.2856 32.7996L17.3152 32.8662L20.7327 40.5308L20.7752 40.6262L20.8686 40.5795L25.1174 38.4591L25.216 38.4099L25.1575 38.3165L20.177 30.3644ZM47.3568 50.9263H47.4568V50.8263V41.9001C47.4568 39.7263 46.1341 37.7139 44.255 36.208C42.3747 34.7011 39.9226 33.6883 37.6313 33.5191L37.5612 33.5139L37.5326 33.5781L33.6521 42.2803C33.5481 42.5133 33.353 42.6942 33.1121 42.7804L33.1458 42.8746L33.1121 42.7804C32.8734 42.8659 32.6072 42.8517 32.3765 42.7366L31.6999 42.3985L31.5981 42.3477L31.5608 42.4552L30.6585 45.0552L30.6491 45.0823L30.6555 45.1103L31.9657 50.8485L31.9835 50.9263H32.0632H47.3568Z" fill="#FF8A00" stroke="white" stroke-width="0.2"/>
<path d="M35.8917 46.1645H40.0404C40.5582 46.1645 40.9776 46.5834 40.9776 47.0997C40.9776 47.6161 40.5582 48.0349 40.0404 48.0349H35.8917C35.3738 48.0349 34.9545 47.6161 34.9545 47.0997C34.9545 46.5834 35.3738 46.1645 35.8917 46.1645Z" fill="#FF8A00" stroke="white" stroke-width="0.2"/>
<path d="M44.1319 46.1645C44.6493 46.1645 45.0691 46.5838 45.0691 47.0997C45.0691 47.6156 44.6493 48.0349 44.1319 48.0349C43.6145 48.0349 43.1947 47.6156 43.1947 47.0997C43.1947 46.5838 43.6145 46.1645 44.1319 46.1645Z" fill="#FF8A00" stroke="white" stroke-width="0.2"/>
</g>
<defs>
<clipPath id="clip0">
<rect width="53" height="53" fill="white"/>
</clipPath>
</defs>
</svg>
