<svg width="60" height="60" viewBox="0 0 60 60" fill="none" xmlns="http://www.w3.org/2000/svg">
<path d="M19.9757 40.1321L19.9301 40.0313L19.8846 40.1321C18.6862 42.783 16.6372 45.031 13.9738 46.4764C13.7982 46.5715 13.6088 46.6167 13.4222 46.6167C13.0162 46.6167 12.6228 46.403 12.4138 46.0263C12.109 45.4763 12.3123 44.786 12.8687 44.484C16.0117 42.779 18.1272 39.7304 18.6526 36.2861L18.6614 36.2285H18.6032H14.4013C13.7663 36.2285 13.2526 35.7195 13.2526 35.0925C13.2526 34.4655 13.7663 33.9564 14.4013 33.9564H18.7315H18.7815V33.9064V28.9639C18.7815 28.3369 19.2952 27.8278 19.9302 27.8278C20.5651 27.8278 21.0788 28.3369 21.0788 28.9639V33.9064V33.9564H21.1288H26.579C27.214 33.9564 27.7277 34.4655 27.7277 35.0925C27.7277 35.7195 27.214 36.2285 26.579 36.2285H21.2571H21.1989L21.2077 36.2861C21.7331 39.7304 23.8486 42.7786 26.9916 44.484C27.548 44.786 27.7513 45.4763 27.4465 46.0263C27.2375 46.403 26.8441 46.6167 26.4381 46.6167C26.2515 46.6167 26.0621 46.5715 25.8865 46.4764C23.2231 45.031 21.1746 42.783 19.9757 40.1321Z" fill="#FF8A00" stroke="white" stroke-width="0.1"/>
<path d="M45.0043 23.3243L45.0483 23.3035C45.4527 23.113 45.7329 22.7027 45.7329 22.226C45.7329 21.568 45.1992 21.0339 44.5408 21.0339H44.0323H43.9996L43.9865 21.004L39.9807 11.8745C39.9807 11.8745 39.9807 11.8745 39.9807 11.8745C39.7902 11.4409 39.3618 11.1611 38.8887 11.1611C38.4156 11.1611 37.9872 11.4409 37.7972 11.8745L37.7972 11.8745L33.7914 21.004L33.7782 21.0339H33.7456H33.2371C32.5786 21.0339 32.045 21.568 32.045 22.226C32.045 22.7027 32.3252 23.113 32.7295 23.3035L32.7921 23.3331L32.7445 23.3832L31.7093 24.4724C31.6809 24.5402 31.6742 24.5999 31.6829 24.6532C31.692 24.7088 31.7183 24.7615 31.761 24.8122C31.8476 24.9151 31.9968 25.0048 32.1816 25.0865C32.3653 25.1677 32.5775 25.2384 32.7851 25.3065C32.7958 25.31 32.8065 25.3135 32.8172 25.317C33.0122 25.381 33.2022 25.4433 33.3536 25.5097C33.3536 25.5097 33.3536 25.5097 33.3536 25.5097L33.3335 25.5555C33.5853 25.666 33.8587 25.9673 34.1137 26.2482C34.4949 26.6684 34.835 27.0432 35.0002 26.6666L45.0043 23.3243ZM45.0043 23.3243L45.0239 23.3689L46.5158 26.7691L46.5159 26.7692C46.7808 27.3722 46.5061 28.0753 45.9035 28.3398C45.7475 28.4083 45.585 28.4404 45.4253 28.4404C44.966 28.4404 44.5288 28.174 44.3328 27.727L44.287 27.7471L44.3328 27.727L42.4551 23.448L42.442 23.4181H42.4093H35.3686H35.324L35.3189 23.4624L34.9514 26.6533L45.0043 23.3243ZM36.4125 20.9638L36.3818 21.0339H36.4583H41.3191H41.3956L41.3648 20.9638L38.9345 15.4248L38.8887 15.3204L38.8429 15.4248L36.4125 20.9638Z" fill="#FF8A00" stroke="white" stroke-width="0.1"/>
<path d="M12.5649 50.9617L12.5648 50.9617C12.1454 50.7944 11.6661 50.9043 11.3608 51.2376C11.3608 51.2377 11.3608 51.2377 11.3607 51.2377L11.2981 51.1803C9.90906 52.6987 8.11068 53.7658 6.1489 54.2734L12.5649 50.9617ZM12.5649 50.9617C14.688 51.8064 17.8507 52.3506 20.625 52.3506C30.3528 52.3506 38.2881 45.4896 38.2881 37.0312C38.2881 28.244 30.0153 21.7119 20.625 21.7119C10.6836 21.7119 2.25875 28.7124 2.25875 37.0312C2.25875 40.636 3.73287 44.1372 6.40584 46.8903L6.40593 46.8904C6.5311 47.0189 6.62237 47.1768 6.67163 47.3496L12.5649 50.9617ZM19.5004 19.5678L19.5755 19.564L19.5809 19.4891C20.2468 10.3797 28.8606 3.13188 39.375 3.13188C49.794 3.13188 59.915 10.5057 59.915 20.625C59.915 24.6973 58.3036 28.6447 55.3677 31.7738L55.3524 31.7902L55.3471 31.8119C54.7565 34.2466 55.4735 36.8272 57.2528 38.6066C57.5636 38.9173 57.6566 39.3848 57.4884 39.7911C57.3203 40.197 56.9242 40.4619 56.4844 40.4619C53.1644 40.4619 49.9647 39.1599 47.5873 36.8657L47.5499 36.8297L47.5008 36.8464C45.4903 37.5315 42.9464 37.9835 40.4996 38.0921L40.4241 38.0955L40.4186 38.1708C39.7509 47.2784 31.138 54.5244 20.625 54.5244C17.8533 54.5244 14.8209 54.044 12.4992 53.2527L12.4501 53.2359L12.4127 53.272C10.0353 55.5662 6.83562 56.8681 3.51563 56.8681C3.07578 56.8681 2.67968 56.6032 2.51156 56.1974C2.34341 55.791 2.43641 55.3236 2.74718 55.0128C4.52649 53.2335 5.24353 50.6529 4.65292 48.2182L4.64763 48.1964L4.6323 48.1801C1.69636 45.0509 0.085 41.1035 0.085 37.0312C0.085 27.2923 9.4814 20.0703 19.5004 19.5678ZM53.9408 37.9776L54.1237 38.0228L54.0365 37.8557C52.9419 35.7585 52.6624 33.2861 53.3283 30.9435C53.3776 30.7711 53.4689 30.6131 53.5942 30.484C56.2671 27.731 57.7413 24.2298 57.7413 20.625C57.7413 12.3061 49.3164 5.30562 39.375 5.30562C30.0899 5.30562 22.4391 11.5562 21.7612 19.4802L21.7537 19.5676L21.8413 19.5723C24.9033 19.7374 27.8777 20.5236 30.5262 21.8714L30.5335 21.8757L30.5431 21.8814L30.5526 21.887L30.562 21.8926L30.5714 21.8982L30.5807 21.9037L30.5899 21.9091L30.599 21.9146L30.6081 21.9199L30.6171 21.9253L30.626 21.9305L30.6348 21.9358L30.6436 21.941L30.6523 21.9461L30.6609 21.9513L30.6695 21.9563L30.678 21.9614L30.6864 21.9663L30.6948 21.9713L30.703 21.9762L30.7112 21.9811L30.7194 21.9859L30.7274 21.9907L30.7354 21.9954L30.7434 22.0001L30.7512 22.0048L30.759 22.0094L30.7668 22.014L30.7744 22.0185L30.782 22.023L30.7895 22.0275L30.797 22.0319L30.8044 22.0363L30.8117 22.0406L30.819 22.0449L30.8262 22.0492L30.8333 22.0534L30.8403 22.0576L30.8473 22.0617L30.8543 22.0658L30.8612 22.0699L30.868 22.074L30.8747 22.078L30.8814 22.0819L30.888 22.0858L30.8946 22.0897L30.9011 22.0936L30.9075 22.0974L30.9139 22.1012L30.9202 22.1049L30.9264 22.1086L30.9326 22.1123L30.9387 22.1159L30.9448 22.1195L30.9508 22.1231L30.9568 22.1266L30.9627 22.1301L30.9685 22.1335L30.9743 22.1369L30.98 22.1403L30.9856 22.1437L30.9912 22.147L30.9968 22.1503L31.0022 22.1535L31.0077 22.1568L31.013 22.1599L31.0184 22.1631L31.0236 22.1662L31.0288 22.1693L31.034 22.1723L31.0391 22.1754L31.0441 22.1783L31.0491 22.1813L31.054 22.1842L31.0589 22.1871L31.0637 22.19L31.0685 22.1928L31.0732 22.1956L31.0778 22.1983L31.0825 22.2011L31.087 22.2038L31.0915 22.2064L31.096 22.2091L31.1004 22.2117L31.1047 22.2143L31.109 22.2168L31.1133 22.2193L31.1175 22.2218L31.1216 22.2243L31.1257 22.2267L31.1298 22.2291L31.1338 22.2315L31.1377 22.2338L31.1417 22.2362L31.1455 22.2385L31.1493 22.2407L31.1531 22.2429L31.1568 22.2451L31.1605 22.2473L31.1641 22.2495L31.1677 22.2516L31.1712 22.2537L31.1747 22.2557L31.1781 22.2578L31.1815 22.2598L31.1849 22.2618L31.1882 22.2637L31.1915 22.2657L31.1947 22.2676L31.1979 22.2695L31.201 22.2713L31.2041 22.2732L31.2071 22.275L31.2101 22.2767L31.2131 22.2785L31.216 22.2802L31.2189 22.2819L31.2217 22.2836L31.2245 22.2853L31.2273 22.2869L31.23 22.2885L31.2327 22.2901L31.2353 22.2917L31.2379 22.2932L31.2405 22.2947L31.243 22.2962L31.2455 22.2977L31.2479 22.2991L31.2503 22.3006L31.2527 22.302L31.255 22.3034L31.2573 22.3047L31.2596 22.306L31.2618 22.3074L31.264 22.3087L31.2661 22.3099L31.2682 22.3112L31.2703 22.3124L31.2724 22.3136L31.2744 22.3148L31.2763 22.316L31.2783 22.3171L31.2802 22.3183L31.2821 22.3194L31.2839 22.3205L31.2857 22.3215L31.2875 22.3226L31.2892 22.3236L31.2909 22.3246L31.2926 22.3256L31.2943 22.3266L31.2959 22.3276L31.2975 22.3285L31.299 22.3294L31.3005 22.3303L31.302 22.3312L31.3035 22.3321L31.3049 22.3329L31.3063 22.3338L31.3077 22.3346L31.3091 22.3354L31.3104 22.3362L31.3117 22.3369L31.313 22.3377L31.3142 22.3384L31.3154 22.3391L31.3166 22.3398L31.3177 22.3405L31.3189 22.3412L31.32 22.3419L31.3211 22.3425L31.3221 22.3431L31.3232 22.3437L31.3242 22.3443L31.3251 22.3449L31.3261 22.3455L31.327 22.346L31.328 22.3466L31.3288 22.3471L31.3297 22.3476L31.3306 22.3481L31.3314 22.3486L31.3322 22.3491L31.333 22.3495L31.3337 22.35L31.3344 22.3504L31.3352 22.3508L31.3359 22.3513L31.3365 22.3517L31.3372 22.352L31.3378 22.3524L31.3384 22.3528L31.339 22.3531L31.3396 22.3535L31.3402 22.3538L31.3407 22.3541L31.3412 22.3544L31.3417 22.3547L31.3422 22.355L31.3427 22.3553L31.3432 22.3556L31.3436 22.3558L31.344 22.3561L31.3444 22.3563L31.3448 22.3566L31.3452 22.3568L31.3456 22.357L31.3459 22.3572L31.3462 22.3574L31.3466 22.3576L31.3469 22.3578L31.3472 22.358L31.3474 22.3581L31.3477 22.3583L31.348 22.3584L31.3482 22.3586L31.3484 22.3587L31.3487 22.3588L31.3489 22.359L31.3491 22.3591L31.3492 22.3592L31.3494 22.3593L31.3496 22.3594L31.3497 22.3595L31.3499 22.3596L31.35 22.3597L31.3502 22.3597L31.3503 22.3598L31.3504 22.3599L31.3505 22.3599L31.3506 22.36L31.3507 22.36L31.3508 22.3601L31.3508 22.3601L31.3509 22.3602L31.351 22.3602L31.351 22.3602L31.3511 22.3603L31.3511 22.3603L31.3512 22.3603L31.3512 22.3603L31.3512 22.3604L31.3513 22.3604L31.3513 22.3604L31.3513 22.3604L31.3513 22.3604L31.3513 22.3604L31.3513 22.3604L31.3514 22.3604L31.3514 22.3605L31.3514 22.3605L31.3514 22.3605L31.3514 22.3605L31.3514 22.3605L31.3515 22.3605L31.3515 22.3605L31.3515 22.3605L31.3516 22.3606L31.3516 22.3606L31.3516 22.3606L31.3517 22.3606L31.3518 22.3607L31.3518 22.3607L31.3519 22.3608L31.352 22.3608L31.352 22.3609L31.3521 22.3609L31.3522 22.361L31.3523 22.361L31.3524 22.3611L31.3526 22.3612L31.3527 22.3612L31.3528 22.3613L31.353 22.3614L31.3531 22.3615L31.3533 22.3616L31.3535 22.3617L31.3537 22.3618L31.3539 22.3619L31.3541 22.3621L31.3543 22.3622L31.3545 22.3623L31.3548 22.3625L31.355 22.3626L31.3553 22.3628L31.3556 22.3629L31.3559 22.3631L31.3562 22.3633L31.3565 22.3635L31.3568 22.3637L31.3572 22.3639L31.3575 22.3641L31.3579 22.3643L31.3583 22.3646L31.3587 22.3648L31.3591 22.3651L31.3596 22.3653L31.36 22.3656L31.3605 22.3659L31.361 22.3662L31.3615 22.3665L31.362 22.3668L31.3626 22.3671L31.3631 22.3674L31.3637 22.3678L31.3643 22.3681L31.3649 22.3685L31.3655 22.3689L31.3662 22.3692L31.3669 22.3696L31.3676 22.3701L31.3683 22.3705L31.369 22.3709L31.3698 22.3714L31.3705 22.3718L31.3713 22.3723L31.3722 22.3728L31.373 22.3733L31.3739 22.3738L31.3748 22.3743L31.3757 22.3749L31.3766 22.3754L31.3776 22.376L31.3786 22.3766L31.3796 22.3772L31.3806 22.3778L31.3817 22.3784L31.3827 22.379L31.3838 22.3797L31.385 22.3804L31.3861 22.3811L31.3873 22.3818L31.3885 22.3825L31.3898 22.3832L31.391 22.384L31.3923 22.3847L31.3937 22.3855L31.395 22.3863L31.3964 22.3871L31.3978 22.388L31.3992 22.3888L31.4007 22.3897L31.4022 22.3906L31.4037 22.3915L31.4053 22.3924L31.4068 22.3933L31.4085 22.3943L31.4101 22.3953L31.4118 22.3963L31.4135 22.3973L31.4152 22.3983L31.417 22.3994L31.4188 22.4004L31.4207 22.4015L31.4225 22.4026L31.4244 22.4038L31.4264 22.4049L31.4284 22.4061L31.4304 22.4073L31.4324 22.4085L31.4345 22.4097L31.4366 22.411L31.4387 22.4122L31.4409 22.4135L31.4431 22.4148L31.4454 22.4162L31.4477 22.4175L31.45 22.4189L31.4524 22.4203L31.4548 22.4218L31.4572 22.4232L31.4597 22.4247L31.4622 22.4262L31.4648 22.4277L31.4674 22.4292L31.47 22.4308L31.4727 22.4324L31.4754 22.434L31.4782 22.4356L31.481 22.4373L31.4838 22.439L31.4867 22.4407L31.4896 22.4424L31.4926 22.4442L31.4956 22.4459L31.4986 22.4477L31.5017 22.4496L31.5049 22.4514L31.508 22.4533L31.5113 22.4552L31.5145 22.4572L31.5178 22.4591L31.5212 22.4611L31.5246 22.4631L31.528 22.4652L31.5315 22.4672L31.535 22.4693L31.5386 22.4714L31.5422 22.4736L31.5459 22.4758L31.5496 22.478L31.5534 22.4802L31.5572 22.4824L31.5611 22.4847L31.565 22.4871L31.5689 22.4894L31.5729 22.4918L31.577 22.4942L31.5811 22.4966L31.5852 22.4991L31.5894 22.5016L31.5937 22.5041L31.598 22.5066L31.6023 22.5092L31.6067 22.5118L31.6112 22.5145L31.6157 22.5171L31.6203 22.5198L31.6249 22.5226L31.6295 22.5253L31.6343 22.5281L31.639 22.5309L31.6438 22.5338L31.6487 22.5367L31.6536 22.5396L31.6586 22.5426L31.6637 22.5455L31.6688 22.5486L31.6739 22.5516L31.6791 22.5547L31.6844 22.5578L31.6897 22.561L31.695 22.5641L31.7005 22.5674L31.706 22.5706L31.7115 22.5739L31.7171 22.5772L31.7228 22.5806L31.7285 22.5839L31.7342 22.5874L31.7401 22.5908L31.746 22.5943L31.7519 22.5978L31.7579 22.6014L31.764 22.605L31.7701 22.6086L31.7763 22.6123L31.7825 22.616L31.7889 22.6197L31.7952 22.6235L31.8017 22.6273L31.8082 22.6312L31.8147 22.6351L31.8213 22.639L31.828 22.6429L31.8348 22.6469L31.8416 22.651L31.8484 22.6551L31.8554 22.6592L31.8624 22.6633L31.8694 22.6675L31.8766 22.6717L31.8838 22.676L31.891 22.6803L31.8983 22.6846L31.9057 22.689L31.9132 22.6934L31.9207 22.6979L31.9283 22.7024L31.936 22.7069L31.9437 22.7115L31.9515 22.7161L31.9594 22.7208L31.9673 22.7255L31.9753 22.7302L31.9834 22.735L31.9915 22.7398L31.9997 22.7447L32.008 22.7496L32.0163 22.7545L32.0247 22.7595L32.0332 22.7646L32.0418 22.7696L32.0504 22.7748L32.0591 22.7799L32.0679 22.7851L32.0767 22.7904L32.0857 22.7956L32.0946 22.801L32.1037 22.8063L32.1128 22.8118L32.1221 22.8172L32.1313 22.8227L32.1407 22.8283L32.1501 22.8339L32.1596 22.8395L32.1692 22.8452L32.177 22.8498C32.5925 23.1268 32.8001 23.2652 32.9081 23.3382C33.0122 23.4086 33.0205 23.4161 33.0317 23.4264L33.0334 23.4279C33.0731 23.4638 33.1482 23.5303 34.1161 24.2084C37.8772 27.2872 40.0746 31.4307 40.415 35.8366L40.4214 35.9191L40.5039 35.915C42.9748 35.7929 45.5947 35.2876 47.4351 34.5555L47.4352 34.5554C47.8545 34.3882 48.3339 34.4985 48.6393 34.8315C50.0657 36.3907 51.9202 37.4783 53.9408 37.9776Z" fill="#FF8A00" stroke="white" stroke-width="0.17"/>
</svg>
