<svg width="26" height="26" viewBox="0 0 26 26" fill="none" xmlns="http://www.w3.org/2000/svg">
<g clip-path="url(#clip0)">
<path d="M18.5253 6.08851L18.5253 6.08851C19.031 5.44381 18.9299 4.68029 18.6919 4.06469C18.4542 3.44985 18.0846 2.99567 18.0755 2.98464L18.114 2.95284L18.0756 2.98484C17.9063 2.78152 17.9331 2.47932 18.1365 2.30936L18.5253 6.08851ZM18.5253 6.08851C17.7606 7.0636 17.7877 8.19268 18.011 9.08502C18.2342 9.97734 18.6553 10.6411 18.6911 10.6964L18.6911 10.6964M18.5253 6.08851L18.6911 10.6964M18.6911 10.6964C18.783 10.8385 18.9373 10.9158 19.0946 10.9158C19.1839 10.9158 19.2743 10.8909 19.3548 10.8389L19.3548 10.8389M18.6911 10.6964L19.3548 10.8389M19.3548 10.8389C19.5772 10.695 19.6412 10.3979 19.4973 10.1752L19.4972 10.1751M19.3548 10.8389L19.4972 10.1751M19.4972 10.1751C19.4972 10.1751 19.4968 10.1746 19.496 10.1733L19.4928 10.1681L19.4812 10.149C19.4712 10.1325 19.4571 10.1086 19.4397 10.0779C19.4049 10.0165 19.3569 9.92816 19.3032 9.81814C19.1958 9.59796 19.0655 9.29181 18.9704 8.94238C18.7798 8.24182 18.7336 7.37842 19.2807 6.68095C19.9143 5.87331 20.0223 4.85731 19.6019 3.74953M19.4972 10.1751L19.6019 3.74953M19.6019 3.74953C19.3024 2.96049 18.8339 2.3952 18.8126 2.36967L19.6019 3.74953ZM18.8126 2.36965C18.6426 2.16629 18.3399 2.13929 18.1365 2.30935L18.8126 2.36965Z" fill="#FF8A00" stroke="#FF8A00" stroke-width="0.1"/>
<path d="M22.4877 3.74952L22.4877 3.74953C22.9082 4.85731 22.8001 5.87331 22.1665 6.68095C21.6194 7.37842 21.6657 8.24182 21.8563 8.94238C21.9514 9.2918 22.0817 9.59796 22.1891 9.81814C22.2428 9.92816 22.2907 10.0165 22.3256 10.0779C22.343 10.1086 22.3571 10.1326 22.367 10.1491L22.3787 10.1681L22.3819 10.1733L22.3828 10.1748L22.3831 10.1752L22.3831 10.1752L22.4877 3.74952ZM22.4877 3.74952C22.1881 2.96042 21.7196 2.3951 21.6983 2.36966M22.4877 3.74952L21.6983 2.36966M21.411 6.08851L21.411 6.0885C21.9177 5.44251 21.8152 4.67722 21.5762 4.061C21.3376 3.44556 20.9674 2.99201 20.9612 2.98453L20.9998 2.95271L20.9613 2.98471C20.792 2.78136 20.8191 2.47917 21.0222 2.30936L21.411 6.08851ZM21.411 6.08851C20.6463 7.06361 20.6735 8.19268 20.8967 9.08502C21.12 9.97735 21.5412 10.6411 21.5769 10.6964L21.5769 10.6964M21.411 6.08851L21.5769 10.6964M21.5769 10.6964C21.6688 10.8385 21.823 10.9158 21.9803 10.9158C22.0697 10.9158 22.16 10.8909 22.2406 10.8389L22.2406 10.8389M21.5769 10.6964L22.2406 10.8389M22.2406 10.8389C22.4631 10.695 22.527 10.398 22.3831 10.1753L22.2406 10.8389ZM21.6983 2.36966C21.5284 2.16628 21.2255 2.1393 21.0222 2.30936L21.6983 2.36966ZM21.6983 2.36966C21.6983 2.36967 21.6983 2.36968 21.6983 2.36968L21.6599 2.40173L21.6983 2.36966Z" fill="#FF8A00" stroke="#FF8A00" stroke-width="0.1"/>
<path d="M2.96854 2.50857L2.96855 2.50857C3.17201 2.33852 3.47463 2.3655 3.64459 2.56886C3.6446 2.56887 3.64461 2.56888 3.64462 2.56889L3.60625 2.60095L2.96854 2.50857ZM2.96854 2.50857C2.76546 2.67838 2.73831 2.98056 2.90766 3.18391M2.96854 2.50857L2.90766 3.18391M2.90766 3.18391C2.90766 3.18392 2.90767 3.18392 2.90767 3.18393M2.90766 3.18391L2.90767 3.18393M2.90767 3.18393C2.90771 3.18397 2.90782 3.18412 2.90804 3.18438L2.90906 3.18563L2.91268 3.19011L2.92574 3.20664C2.93691 3.22093 2.95282 3.24166 2.97249 3.26827C3.01185 3.32151 3.06625 3.39823 3.12792 3.494C3.25136 3.68568 3.40346 3.9529 3.52264 4.26022C3.7616 4.87644 3.86414 5.64173 3.35747 6.28772C2.59262 7.26282 2.61972 8.39186 2.843 9.28419C3.06627 10.1765 3.48744 10.8403 3.52324 10.8956C3.61513 11.0377 3.76937 11.1151 3.92665 11.1151C4.01599 11.1151 4.10636 11.0901 4.1868 11.0381C4.40932 10.8942 4.4732 10.5971 4.32922 10.3745L2.90767 3.18393ZM4.43393 3.94875L4.43392 3.94874L4.32915 10.3744L4.32913 10.3744L4.32887 10.374L4.32796 10.3725L4.32474 10.3674L4.31311 10.3483C4.30318 10.3318 4.28905 10.3078 4.27164 10.2772C4.23682 10.2158 4.18891 10.1274 4.13522 10.0174C4.02776 9.79718 3.89746 9.49102 3.8024 9.1416C3.61182 8.44104 3.56558 7.57764 4.11274 6.88017L4.07341 6.84931L4.11275 6.88017C4.7463 6.07253 4.85437 5.05653 4.43393 3.94875Z" fill="#FF8A00" stroke="#FF8A00" stroke-width="0.1"/>
<path d="M7.3198 3.94875L7.3198 3.94876C7.74012 5.05653 7.63205 6.07253 6.9985 6.88017L6.95916 6.84931L6.99849 6.88017C6.45133 7.57764 6.49757 8.44104 6.68815 9.1416C6.78321 9.49102 6.91351 9.79718 7.02097 10.0174C7.07466 10.1274 7.12257 10.2158 7.15739 10.2772C7.1748 10.3078 7.18893 10.3318 7.19886 10.3483L7.21049 10.3674L7.21371 10.3725L7.21462 10.374L7.21488 10.3744L7.2149 10.3744L7.3198 3.94875ZM7.3198 3.94875C7.02031 3.15971 6.55186 2.59442 6.53049 2.56889L7.3198 3.94875ZM5.85442 2.50857L5.85443 2.50857C6.05789 2.33851 6.36052 2.3655 6.53048 2.56887L5.85442 2.50857ZM5.85442 2.50857C5.65134 2.67838 5.62418 2.98056 5.79353 3.18391C5.79354 3.18392 5.79354 3.18392 5.79354 3.18393C5.79358 3.18397 5.7937 3.18412 5.79391 3.18438L5.79493 3.18563L5.79855 3.19011L5.81162 3.20664C5.82278 3.22093 5.83869 3.24166 5.85837 3.26827C5.89773 3.32151 5.95212 3.39823 6.01379 3.494C6.13723 3.68568 6.28933 3.9529 6.4085 4.26022C6.64745 4.87644 6.74995 5.64173 6.24322 6.28772C5.47836 7.26282 5.50547 8.39186 5.72873 9.28419C5.95199 10.1765 6.37312 10.8403 6.40884 10.8956L6.40886 10.8956M5.85442 2.50857L6.40886 10.8956M6.40886 10.8956C6.50075 11.0377 6.65499 11.1151 6.81227 11.1151C6.90162 11.1151 6.99198 11.0901 7.07252 11.0381L7.07255 11.0381M6.40886 10.8956L7.07255 11.0381M7.07255 11.0381C7.29507 10.8942 7.35895 10.5971 7.21497 10.3745L7.07255 11.0381Z" fill="#FF8A00" stroke="#FF8A00" stroke-width="0.1"/>
<path d="M12.6573 9.02958L12.6572 9.02957C12.3122 8.89406 12.0898 8.56955 12.0898 8.20269C12.0898 7.71181 12.4894 7.31226 12.9804 7.31226H12.9804H12.9805H12.9805H12.9805H12.9806H12.9806H12.9807H12.9807H12.9807H12.9808H12.9808H12.9809H12.9809H12.981H12.981H12.9811H12.9811H12.9811H12.9812H12.9812H12.9813H12.9813H12.9814H12.9814H12.9815H12.9815H12.9816H12.9816H12.9817H12.9817H12.9818H12.9818H12.9819H12.9819H12.982H12.982H12.9821H12.9822H12.9822H12.9823H12.9823H12.9824H12.9824H12.9825H12.9825H12.9826H12.9827H12.9827H12.9828H12.9828H12.9829H12.983H12.983H12.9831H12.9831H12.9832H12.9833H12.9833H12.9834H12.9834H12.9835H12.9836H12.9836H12.9837H12.9837H12.9838H12.9839H12.9839H12.984H12.9841H12.9841H12.9842H12.9843H12.9843H12.9844H12.9845H12.9845H12.9846H12.9847H12.9847H12.9848H12.9849H12.9849H12.985H12.9851H12.9852H12.9852H12.9853H12.9854H12.9854H12.9855H12.9856H12.9857H12.9857H12.9858H12.9859H12.9859H12.986H12.9861H12.9862H12.9862H12.9863H12.9864H12.9865H12.9865H12.9866H12.9867H12.9868H12.9868H12.9869H12.987H12.9871H12.9871H12.9872H12.9873H12.9874H12.9875H12.9875H12.9876H12.9877H12.9878H12.9879H12.9879H12.988H12.9881H12.9882H12.9883H12.9883H12.9884H12.9885H12.9886H12.9887H12.9887H12.9888H12.9889H12.989H12.9891H12.9892H12.9892H12.9893H12.9894H12.9895H12.9896H12.9897H12.9897H12.9898H12.9899H12.99H12.9901H12.9902H12.9902H12.9903H12.9904H12.9905H12.9906H12.9907H12.9908H12.9908H12.9909H12.991H12.9911H12.9912H12.9913H12.9914H12.9915H12.9915H12.9916H12.9917H12.9918H12.9919H12.992H12.9921H12.9922H12.9923H12.9923H12.9924H12.9925H12.9926H12.9927H12.9928H12.9929H12.993H12.9931H12.9931H12.9932H12.9933H12.9934H12.9935H12.9936H12.9937H12.9938H12.9939H12.994H12.9941H12.9941H12.9942H12.9943H12.9944H12.9945H12.9946H12.9947H12.9948H12.9949H12.995H12.9951H12.9952H12.9953H12.9953H12.9954H12.9955H12.9956H12.9957H12.9958H12.9959H12.996H12.9961H12.9962H12.9963H12.9964H12.9965H12.9966H12.9966H12.9967H12.9968H12.9969H12.997H12.9971H12.9972H12.9973H12.9974H12.9975H12.9976H12.9977H12.9978H12.9979H12.998H12.9981H12.9982H12.9982H12.9983H12.9984H12.9985H12.9986H12.9987H12.9988H12.9989H12.999H12.9991H12.9992H12.9993H12.9994H12.9995H12.9996H12.9997H12.9998H12.9999H13H13H13.0001H13.0002H13.0003H13.0004H13.0005H13.0006H13.0007H13.0008H13.0009H13.001H13.0011H13.0012H13.0013H13.0014H13.0015H13.0016H13.0017H13.0017H13.0018H13.0019H13.002H13.0021H13.0022H13.0023H13.0024H13.0025H13.0026H13.0027H13.0028H13.0029H13.003H13.0031H13.0032H13.0032H13.0033H13.0034H13.0035H13.0036H13.0037H13.0038H13.0039H13.004H13.0041H13.0042H13.0043H13.0044H13.0045H13.0045H13.0046H13.0047H13.0048H13.0049H13.005H13.0051H13.0052H13.0053H13.0054H13.0055H13.0056H13.0057H13.0057H13.0058H13.0059H13.006H13.0061H13.0062H13.0063H13.0064H13.0065H13.0066H13.0066H13.0067H13.0068H13.0069H13.007H13.0071H13.0072H13.0073H13.0074H13.0075H13.0075H13.0076H13.0077H13.0078H13.0079H13.008H13.0081H13.0082H13.0082H13.0083H13.0084H13.0085H13.0086H13.0087H13.0088H13.0089H13.0089H13.009H13.0091H13.0092H13.0093H13.0094H13.0095H13.0095H13.0096H13.0097H13.0098H13.0099H13.01H13.01H13.0101H13.0102H13.0103H13.0104H13.0105H13.0105H13.0106H13.0107H13.0108H13.0109H13.011H13.011H13.0111H13.0112H13.0113H13.0114H13.0114H13.0115H13.0116H13.0117H13.0118H13.0118H13.0119H13.012H13.0121H13.0121H13.0122H13.0123H13.0124H13.0125H13.0125H13.0126H13.0127H13.0128H13.0128H13.0129H13.013H13.0131H13.0131H13.0132H13.0133H13.0134H13.0134H13.0135H13.0136H13.0137H13.0137H13.0138H13.0139H13.014H13.014H13.0141H13.0142H13.0142H13.0143H13.0144H13.0144H13.0145H13.0146H13.0147H13.0147H13.0148H13.0149H13.0149H13.015H13.0151H13.0151H13.0152H13.0153H13.0153H13.0154H13.0155H13.0155H13.0156H13.0157H13.0157H13.0158H13.0158H13.0159H13.016H13.016H13.0161H13.0162H13.0162H13.0163H13.0163H13.0164H13.0165H13.0165H13.0166H13.0166H13.0167H13.0168H13.0168H13.0169H13.0169H13.017H13.017H13.0171H13.0172H13.0172H13.0173H13.0173H13.0174H13.0174H13.0175H13.0175H13.0176H13.0176H13.0177H13.0178H13.0178H13.0179H13.0179H13.018H13.018H13.0181H13.0181H13.0182H13.0182H13.0182H13.0183H13.0183H13.0184H13.0184H13.0185H13.0185H13.0186H13.0186H13.0187H13.0187H13.0187H13.0188H13.0188H13.0189H13.0189H13.019H13.019H13.019H13.0191H13.0191H13.0192H13.0192H13.0192C13.5103 7.31226 13.9098 7.71181 13.9098 8.20269C13.9098 8.56956 13.6874 8.89418 13.3424 9.02956C13.1586 9.10167 13.0379 9.27902 13.0379 9.47638V10.0902H12.9617V9.47638C12.9617 9.27898 12.8408 9.10181 12.6573 9.02958ZM20.3671 21.27C20.3672 21.27 20.3672 21.27 20.3673 21.27L23.6874 21.2694H24.5725C24.8578 21.2694 25.0898 21.5014 25.0898 21.7865V22.3241C25.0898 22.6099 24.8577 22.8423 24.5727 22.8423H1.42708C1.14189 22.8423 0.909787 22.6099 0.909787 22.3241V21.7865C0.909787 21.5014 1.14192 21.2694 1.42708 21.2694H2.13276L2.13604 21.2696C2.13808 21.2698 2.14159 21.27 2.14558 21.27H20.3671ZM13.0589 11.05C18.2508 11.0708 22.4967 15.1744 22.747 20.3101H20.3671H3.25277C3.50291 15.1745 7.74909 11.0708 12.9408 11.05C12.9409 11.05 12.9409 11.05 12.941 11.05H13.0588C13.0588 11.05 13.0589 11.05 13.0589 11.05ZM24.5727 20.3095H23.7086C23.471 14.9579 19.2838 10.6164 13.9979 10.1347V9.77074C14.5366 9.43728 14.87 8.85201 14.87 8.20269C14.87 7.18241 14.0398 6.35234 13.0195 6.35234H13.0195H13.0194H13.0194H13.0193H13.0193H13.0193H13.0192H13.0192H13.0191H13.0191H13.019H13.019H13.019H13.0189H13.0189H13.0188H13.0188H13.0187H13.0187H13.0186H13.0186H13.0185H13.0185H13.0185H13.0184H13.0184H13.0183H13.0183H13.0182H13.0182H13.0181H13.0181H13.018H13.018H13.0179H13.0178H13.0178H13.0177H13.0177H13.0176H13.0176H13.0175H13.0175H13.0174H13.0174H13.0173H13.0172H13.0172H13.0171H13.0171H13.017H13.017H13.0169H13.0168H13.0168H13.0167H13.0167H13.0166H13.0165H13.0165H13.0164H13.0163H13.0163H13.0162H13.0162H13.0161H13.016H13.016H13.0159H13.0158H13.0158H13.0157H13.0156H13.0156H13.0155H13.0154H13.0154H13.0153H13.0152H13.0152H13.0151H13.015H13.015H13.0149H13.0148H13.0148H13.0147H13.0146H13.0146H13.0145H13.0144H13.0143H13.0143H13.0142H13.0141H13.014H13.014H13.0139H13.0138H13.0138H13.0137H13.0136H13.0135H13.0135H13.0134H13.0133H13.0132H13.0132H13.0131H13.013H13.0129H13.0129H13.0128H13.0127H13.0126H13.0125H13.0125H13.0124H13.0123H13.0122H13.0122H13.0121H13.012H13.0119H13.0118H13.0118H13.0117H13.0116H13.0115H13.0114H13.0113H13.0113H13.0112H13.0111H13.011H13.0109H13.0109H13.0108H13.0107H13.0106H13.0105H13.0104H13.0104H13.0103H13.0102H13.0101H13.01H13.0099H13.0099H13.0098H13.0097H13.0096H13.0095H13.0094H13.0093H13.0093H13.0092H13.0091H13.009H13.0089H13.0088H13.0087H13.0086H13.0086H13.0085H13.0084H13.0083H13.0082H13.0081H13.008H13.0079H13.0079H13.0078H13.0077H13.0076H13.0075H13.0074H13.0073H13.0072H13.0071H13.0071H13.007H13.0069H13.0068H13.0067H13.0066H13.0065H13.0064H13.0063H13.0062H13.0061H13.0061H13.006H13.0059H13.0058H13.0057H13.0056H13.0055H13.0054H13.0053H13.0052H13.0051H13.005H13.005H13.0049H13.0048H13.0047H13.0046H13.0045H13.0044H13.0043H13.0042H13.0041H13.004H13.0039H13.0038H13.0037H13.0036H13.0036H13.0035H13.0034H13.0033H13.0032H13.0031H13.003H13.0029H13.0028H13.0027H13.0026H13.0025H13.0024H13.0023H13.0022H13.0021H13.0021H13.002H13.0019H13.0018H13.0017H13.0016H13.0015H13.0014H13.0013H13.0012H13.0011H13.001H13.0009H13.0008H13.0007H13.0006H13.0005H13.0004H13.0003H13.0003H13.0002H13.0001H13H12.9999H12.9998H12.9997H12.9996H12.9995H12.9994H12.9993H12.9992H12.9991H12.999H12.9989H12.9988H12.9987H12.9986H12.9985H12.9985H12.9984H12.9983H12.9982H12.9981H12.998H12.9979H12.9978H12.9977H12.9976H12.9975H12.9974H12.9973H12.9972H12.9971H12.997H12.9969H12.9969H12.9968H12.9967H12.9966H12.9965H12.9964H12.9963H12.9962H12.9961H12.996H12.9959H12.9958H12.9957H12.9956H12.9955H12.9955H12.9954H12.9953H12.9952H12.9951H12.995H12.9949H12.9948H12.9947H12.9946H12.9945H12.9944H12.9943H12.9943H12.9942H12.9941H12.994H12.9939H12.9938H12.9937H12.9936H12.9935H12.9934H12.9933H12.9933H12.9932H12.9931H12.993H12.9929H12.9928H12.9927H12.9926H12.9925H12.9924H12.9924H12.9923H12.9922H12.9921H12.992H12.9919H12.9918H12.9917H12.9917H12.9916H12.9915H12.9914H12.9913H12.9912H12.9911H12.991H12.991H12.9909H12.9908H12.9907H12.9906H12.9905H12.9904H12.9904H12.9903H12.9902H12.9901H12.99H12.9899H12.9899H12.9898H12.9897H12.9896H12.9895H12.9894H12.9894H12.9893H12.9892H12.9891H12.989H12.9889H12.9889H12.9888H12.9887H12.9886H12.9885H12.9885H12.9884H12.9883H12.9882H12.9881H12.9881H12.988H12.9879H12.9878H12.9877H12.9877H12.9876H12.9875H12.9874H12.9874H12.9873H12.9872H12.9871H12.987H12.987H12.9869H12.9868H12.9867H12.9867H12.9866H12.9865H12.9864H12.9864H12.9863H12.9862H12.9861H12.9861H12.986H12.9859H12.9859H12.9858H12.9857H12.9856H12.9856H12.9855H12.9854H12.9854H12.9853H12.9852H12.9852H12.9851H12.985H12.985H12.9849H12.9848H12.9847H12.9847H12.9846H12.9845H12.9845H12.9844H12.9844H12.9843H12.9842H12.9842H12.9841H12.984H12.984H12.9839H12.9838H12.9838H12.9837H12.9837H12.9836H12.9835H12.9835H12.9834H12.9834H12.9833H12.9832H12.9832H12.9831H12.9831H12.983H12.9829H12.9829H12.9828H12.9828H12.9827H12.9827H12.9826H12.9825H12.9825H12.9824H12.9824H12.9823H12.9823H12.9822H12.9822H12.9821H12.9821H12.982H12.982H12.9819H12.9819H12.9818H12.9818H12.9817H12.9817H12.9816H12.9816H12.9815H12.9815H12.9814H12.9814H12.9813H12.9813H12.9813H12.9812H12.9812H12.9811H12.9811H12.981H12.981H12.981H12.9809H12.9809H12.9808H12.9808H12.9808H12.9807H12.9807H12.9806C11.9602 6.35234 11.1302 7.18241 11.1302 8.20269C11.1302 8.85201 11.4636 9.4374 12.0021 9.77073V10.1347C6.71636 10.6164 2.52895 14.9578 2.29141 20.3095H1.42733C0.612675 20.3095 -0.05 20.9721 -0.05 21.7867V22.3243C-0.05 23.1394 0.612646 23.8024 1.4272 23.8024H24.5728C25.3875 23.8024 26.05 23.1394 26.05 22.3243V21.7867C26.0499 20.9721 25.3872 20.3095 24.5727 20.3095Z" fill="#FF8A00" stroke="#FF8A00" stroke-width="0.1"/>
</g>
<defs>
<clipPath id="clip0">
<rect width="26" height="26" fill="white"/>
</clipPath>
</defs>
</svg>
