<svg width="21" height="21" viewBox="0 0 21 21" fill="none" xmlns="http://www.w3.org/2000/svg">
<path d="M13.9156 9.44967L13.8341 9.50583L13.9276 9.53812C15.1935 9.97491 16.3537 10.6965 17.3286 11.6714C19.0073 13.3501 19.937 15.578 19.9499 17.95H18.6436C18.6166 13.7581 15.1982 10.3562 11 10.3562C6.80185 10.3562 3.3834 13.7581 3.35641 17.95H2.05014C2.06302 15.578 2.9927 13.3501 4.67141 11.6714C5.64632 10.6965 6.80658 9.97491 8.0724 9.53812L8.16598 9.50583L8.08445 9.44967C6.7339 8.51951 5.84687 6.963 5.84687 5.20312C5.84687 2.36174 8.15862 0.05 11 0.05C13.8414 0.05 16.1531 2.36174 16.1531 5.20312C16.1531 6.963 15.2661 8.51951 13.9156 9.44967ZM7.15312 5.20312C7.15312 7.32436 8.8788 9.05 11 9.05C13.1212 9.05 14.8469 7.32436 14.8469 5.20312C14.8469 3.08189 13.1212 1.35625 11 1.35625C8.8788 1.35625 7.15312 3.08189 7.15312 5.20312Z" fill="#FF8A00" stroke="white" stroke-width="0.1"/>
</svg>
