<svg width="23" height="17" viewBox="0 0 23 17" fill="none" xmlns="http://www.w3.org/2000/svg">
<path d="M21.8101 2.04119C21.8087 2.04119 21.8073 2.04119 21.8059 2.04119H20.3979V1.55937C20.4054 1.36867 20.2821 1.19728 20.0988 1.14401C19.1212 0.887835 18.1146 0.759384 17.104 0.761876C15.4426 0.761876 13.1788 1.1357 11.5049 2.83869C9.84348 1.11909 7.56314 0.761876 5.90584 0.761876C4.89526 0.759384 3.88863 0.887835 2.91107 1.14401C2.72779 1.19728 2.60443 1.36867 2.61201 1.55937V2.03704H1.21224C0.982854 2.03704 0.796875 2.22302 0.796875 2.4524V15.7191C0.796875 15.9485 0.982854 16.1345 1.21224 16.1345C1.28358 16.1343 1.35367 16.1157 1.41577 16.0805C1.4573 16.0597 5.61093 13.7877 11.4094 15.2497H11.4717H11.5091C11.5422 15.2537 11.5756 15.2537 11.6088 15.2497C17.4239 13.7752 21.5775 16.0431 21.6024 16.0805C21.7309 16.1547 21.8893 16.1547 22.0178 16.0805C22.1455 16.0067 22.2246 15.8708 22.2254 15.7233V2.45656C22.2254 2.22717 22.0395 2.04119 21.8101 2.04119ZM1.6276 15.0587V2.87192H2.62032V13.2892C2.61772 13.5186 2.80157 13.7067 3.03096 13.7093C3.05339 13.7095 3.07582 13.708 3.09799 13.7046C3.95727 13.5734 4.8248 13.504 5.694 13.4969C6.89804 13.476 8.09703 13.6571 9.2412 14.0327C6.65739 13.7203 4.03655 14.0734 1.6276 15.0587ZM5.694 12.6703C4.93851 12.672 4.1839 12.7206 3.43443 12.8157V1.88751C4.24314 1.70735 5.06899 1.6154 5.89753 1.61337C7.45099 1.61337 9.59426 1.97058 11.0813 3.64865L11.0937 13.9953C10.2298 13.4304 8.54339 12.6703 5.694 12.6703ZM11.9244 3.64865C13.4114 1.9872 15.5547 1.61337 17.1082 1.61337C17.9367 1.61581 18.7625 1.70771 19.5713 1.88751V12.8157C18.826 12.7197 18.0756 12.6698 17.3242 12.6662C14.4914 12.6662 12.8009 13.4263 11.9244 13.9912V3.64865ZM21.3906 15.0587C18.9765 14.0707 16.3496 13.7175 13.7604 14.0327C14.9099 13.6558 16.1146 13.4746 17.3242 13.4969C18.1988 13.5018 19.072 13.5698 19.9368 13.7004C20.1636 13.7349 20.3754 13.5789 20.4098 13.3521C20.4132 13.3299 20.4147 13.3075 20.4145 13.2851V2.87192H21.4072L21.3906 15.0587Z" fill="#FF8A00"/>
</svg>
