<svg width="25" height="23" viewBox="0 0 25 23" fill="none" xmlns="http://www.w3.org/2000/svg">
<path d="M24.6331 21.2877H23.8258V11.0627H24.6331C24.767 11.0627 24.8903 10.9897 24.9548 10.8723C25.0192 10.7549 25.0145 10.6117 24.9427 10.4987L22.2029 6.19344C22.1356 6.08757 22.0188 6.02348 21.8934 6.02348H14.6089L12.8669 4.28155V2.84349H16.4139C16.5492 2.84349 16.6736 2.76902 16.7374 2.6497C16.8013 2.53042 16.7943 2.38561 16.7192 2.27304L16.0721 1.30239L16.7192 0.331744C16.7943 0.219171 16.8013 0.0743569 16.7375 -0.044919C16.6736 -0.164244 16.5492 -0.238706 16.4139 -0.238706H12.8669V-0.654557C12.8669 -0.857199 12.7027 -1.02148 12.5 -1.02148C12.2974 -1.02148 12.1331 -0.857199 12.1331 -0.654557V4.28155L10.3911 6.02352H3.10666C2.98122 6.02352 2.86444 6.08762 2.79707 6.19349L0.0573476 10.4988C-0.0145213 10.6117 -0.019169 10.7549 0.0452634 10.8723C0.109745 10.9897 0.233033 11.0627 0.366937 11.0627H1.17418V21.2877H0.366937C0.164295 21.2877 9.03932e-06 21.452 9.03932e-06 21.6546C9.03932e-06 21.8573 0.164295 22.0216 0.366937 22.0216H24.6331C24.8357 22.0216 25 21.8573 25 21.6546C25 21.452 24.8357 21.2877 24.6331 21.2877ZM21.6919 6.75738L23.9647 10.3288H18.9142L15.3428 6.75738H21.6919ZM15.7283 0.495149L15.3258 1.09887C15.2436 1.22211 15.2436 1.38267 15.3258 1.50591L15.7283 2.10963H12.8669V0.495149H15.7283ZM3.30808 6.75738H9.6572L6.08577 10.3288H1.03538L3.30808 6.75738ZM1.90803 11.0627H6.23768C6.24981 11.0627 6.26195 11.062 6.27408 11.0608C6.27927 11.0603 6.28435 11.0593 6.28949 11.0586C6.29619 11.0576 6.3029 11.0568 6.3096 11.0555C6.31557 11.0543 6.32134 11.0527 6.32721 11.0512C6.33293 11.0498 6.33871 11.0485 6.34438 11.0468C6.35016 11.0451 6.35578 11.0428 6.36146 11.0408C6.36708 11.0388 6.37271 11.037 6.37829 11.0347C6.38362 11.0325 6.38871 11.0299 6.39389 11.0274C6.39952 11.0247 6.40524 11.0223 6.41077 11.0193C6.41581 11.0166 6.42056 11.0135 6.42545 11.0106C6.43083 11.0074 6.43631 11.0043 6.44155 11.0008C6.44702 10.9972 6.45216 10.9931 6.4574 10.9891C6.4617 10.9859 6.46615 10.9829 6.47031 10.9794C6.47971 10.9718 6.48871 10.9636 6.49727 10.955L12.5 4.95239L18.5027 10.9551C18.5113 10.9636 18.5204 10.9718 18.5297 10.9795C18.5339 10.9829 18.5383 10.9859 18.5426 10.9891C18.5479 10.9931 18.553 10.9972 18.5585 11.0009C18.5637 11.0043 18.5691 11.0074 18.5745 11.0106C18.5794 11.0135 18.5842 11.0166 18.5893 11.0193C18.5948 11.0223 18.6004 11.0247 18.606 11.0274C18.6113 11.0299 18.6164 11.0325 18.6218 11.0347C18.6273 11.037 18.6329 11.0388 18.6384 11.0408C18.6441 11.0428 18.6498 11.0451 18.6557 11.0469C18.6613 11.0486 18.6669 11.0498 18.6726 11.0512C18.6785 11.0527 18.6844 11.0544 18.6905 11.0556C18.6969 11.0568 18.7034 11.0576 18.7099 11.0586C18.7153 11.0593 18.7206 11.0603 18.726 11.0609C18.738 11.062 18.7501 11.0627 18.7622 11.0627H23.092V21.2877H15.2153V16.1752C15.2153 15.5412 14.6995 15.0255 14.0656 15.0255H10.9345C10.3005 15.0255 9.78474 15.5412 9.78474 16.1752V21.2877H1.90803V11.0627ZM14.4814 16.591H10.5186V16.1752C10.5186 15.9459 10.7051 15.7593 10.9345 15.7593H14.0656C14.2949 15.7593 14.4814 15.9459 14.4814 16.1752V16.591ZM10.5186 17.3249H12.1331V21.2877H10.5186V17.3249ZM12.8669 17.3249H14.4814V21.2877H12.8669V17.3249Z" fill="#FF8A00"/>
</svg>
