<svg width="35" height="35" viewBox="0 0 35 35" fill="none" xmlns="http://www.w3.org/2000/svg">
<g clip-path="url(#clip0)">
<path d="M33.4043 21.8526L34.4057 20.8515C35.0359 20.221 35.0359 19.1954 34.4057 18.5649C34.1002 18.2597 33.6943 18.0915 33.2623 18.0915C32.9381 18.0915 32.6283 18.1863 32.365 18.3628L32.1541 17.6546L33.238 16.5705C33.8684 15.94 33.8684 14.9144 33.238 14.2842C32.6577 13.7037 31.7429 13.6591 31.1092 14.1475L29.8248 9.83547C30.3378 9.34147 30.8291 8.86081 31.2921 8.39778C32.6265 7.06317 33.7114 5.65086 34.3472 4.42038C35.4215 2.34076 34.9718 1.22912 34.4054 0.66275C33.8393 0.0963812 32.7277 -0.353029 30.6478 0.72123C29.4176 1.35676 28.005 2.4417 26.6706 3.77631C26.2076 4.23934 25.7267 4.73041 25.233 5.24337L20.9207 3.95896C21.4091 3.32557 21.3645 2.41072 20.7843 1.8302C20.1538 1.20001 19.1281 1.19975 18.4979 1.8302L17.4138 2.91434L16.7054 2.70339C16.8819 2.43983 16.9767 2.13008 16.9767 1.8059C16.9767 1.37412 16.8085 0.967964 16.5032 0.66275C15.8731 0.0322942 14.8471 0.0322942 14.2169 0.66275L13.2158 1.66384L8.11318 0.143912C7.93134 0.0899725 7.7348 0.13964 7.60102 0.273689L6.2875 1.58721C6.06694 1.8075 6.09604 2.18428 6.34759 2.36827L19.2221 11.792C16.3193 15.065 13.5229 18.342 11.5488 20.6833L7.76177 19.2266C7.57138 19.1535 7.35589 19.1991 7.21169 19.3433L5.65491 20.9001C5.45357 21.1017 5.45357 21.4283 5.65491 21.6296L13.4385 29.4132C13.6372 29.6122 13.9694 29.6122 14.1683 29.4132L15.7248 27.8567C15.869 27.7125 15.915 27.4968 15.8415 27.3064L14.3852 23.5196C16.7265 21.5455 20.0032 18.7492 23.2764 15.846L24.2992 17.2437C24.4807 17.4917 24.849 17.5238 25.0717 17.3123C25.2573 17.136 25.2829 16.8404 25.132 16.6343L24.0508 15.1571C25.7625 13.6294 27.4528 12.0881 28.9863 10.6358L33.8476 26.9552L33.1771 27.6255L26.4957 18.4974C26.3275 18.2675 26.0047 18.2175 25.7748 18.3857C25.5446 18.5542 25.4946 18.8771 25.6631 19.107L32.7002 28.7208C32.8841 28.9724 33.2609 29.0015 33.4812 28.7809L34.7947 27.4674C34.9288 27.3336 34.9785 27.1368 34.9245 26.9552L33.4043 21.8526ZM19.2277 2.55999C19.4531 2.33462 19.8294 2.33462 20.0547 2.55999C20.2828 2.78804 20.2828 3.15894 20.0547 3.38698L19.8128 3.62891L18.5383 3.24919L19.2277 2.55999ZM14.9467 1.39254C15.1745 1.1645 15.5457 1.1645 15.7737 1.39254C16.0018 1.62058 16.0018 1.99149 15.7737 2.21953L15.6146 2.37841L14.3403 1.99896L14.9467 1.39254ZM7.44267 1.89108L8.11318 1.22084L24.4327 6.08184C22.9803 7.61566 21.439 9.30595 19.9111 11.0176L7.44267 1.89108ZM7.70436 20.3102L10.846 21.5185C10.058 22.4569 9.45367 23.1829 9.09718 23.6126L6.74946 21.2649L7.70436 20.3102ZM9.83018 24.3456C11.6289 22.1754 21.1365 10.7698 27.4004 4.50583C28.6432 3.26281 29.9997 2.21766 31.1215 1.63821C31.9637 1.20295 33.0906 0.807213 33.6759 1.39254C34.2612 1.97787 33.8652 3.10473 33.4302 3.94694C32.8508 5.06873 31.8053 6.42497 30.5623 7.66799C24.2989 13.9314 12.893 23.4393 10.7229 25.2382L9.83018 24.3456ZM14.7582 27.3641L13.8036 28.3187L11.4559 25.971C11.8852 25.6148 12.6116 25.0105 13.5499 24.2225L14.7582 27.3641ZM32.8489 19.2947C33.0769 19.0667 33.4478 19.0667 33.6759 19.2947C33.9039 19.5228 33.9039 19.8937 33.6759 20.1217L33.0695 20.7281L32.6898 19.4539L32.8489 19.2947ZM31.6814 15.0137C31.9092 14.7857 32.2804 14.7859 32.5084 15.0137C32.7338 15.2391 32.7338 15.6153 32.5084 15.8407L31.819 16.5302L31.4393 15.2556L31.6814 15.0137Z" fill="#FF8F0C"/>
<path d="M30.9723 29.7844L26.5693 34.1875C26.3816 34.3754 26.369 34.6857 26.5418 34.8876C26.7348 35.113 27.0892 35.1271 27.2991 34.9173L31.7021 30.5142C31.9037 30.3126 31.9037 29.986 31.7021 29.7844C31.5008 29.5831 31.1739 29.5831 30.9723 29.7844Z" fill="#FF8F0C"/>
<path d="M29.501 28.3126C29.7026 28.1112 29.7026 27.7844 29.501 27.583C29.2997 27.3814 28.9728 27.3814 28.7715 27.583L26.0195 30.3348C25.8317 30.5228 25.8192 30.833 25.992 31.0349C26.185 31.2603 26.5394 31.2744 26.7493 31.0646L29.501 28.3126Z" fill="#FF8F0C"/>
<path d="M27.8494 25.5608C28.051 25.3592 28.051 25.0324 27.8494 24.831C27.6478 24.6294 27.3212 24.6294 27.1196 24.831L25.1933 26.7574C25.0055 26.9451 24.993 27.2556 25.166 27.4575C25.3588 27.6829 25.7132 27.697 25.9231 27.4872L27.8494 25.5608Z" fill="#FF8F0C"/>
<path d="M5.28404 3.64118C5.08243 3.43984 4.75559 3.43984 4.55425 3.64118L0.151205 8.04449C-0.0504018 8.24583 -0.0504018 8.57267 0.151205 8.77401C0.349875 8.97268 0.682059 8.97268 0.880996 8.77401L5.28404 4.37097C5.48538 4.16936 5.48538 3.84279 5.28404 3.64118Z" fill="#FF8F0C"/>
<path d="M7.48546 5.84286C7.28386 5.64125 6.95728 5.64125 6.75594 5.84286L4.00394 8.59486C3.81595 8.78258 3.80367 9.09287 3.97643 9.29474C4.1695 9.52011 4.52358 9.53427 4.73346 9.32438L7.48546 6.57265C7.68707 6.37104 7.68707 6.0442 7.48546 5.84286Z" fill="#FF8F0C"/>
<path d="M7.58167 10.15C7.78061 10.3487 8.11252 10.3487 8.31146 10.15L10.2378 8.22369C10.4391 8.02208 10.4391 7.69551 10.2378 7.4939C10.0362 7.29256 9.70963 7.29256 9.50802 7.4939L7.58167 9.42025C7.38033 9.62185 7.38033 9.94843 7.58167 10.15Z" fill="#FF8F0C"/>
</g>
<defs>
<clipPath id="clip0">
<rect width="35" height="35" fill="white"/>
</clipPath>
</defs>
</svg>
