<svg width="42" height="42" viewBox="0 0 42 42" fill="none" xmlns="http://www.w3.org/2000/svg">
<g clip-path="url(#clip0)">
<path d="M4.46662 35.0957H22.7869C24.787 39.1854 29.2717 41.4364 33.7461 40.5965C38.2209 39.7566 41.5838 36.0324 41.9647 31.4959C42.3453 26.9591 39.6501 22.7264 35.3782 21.1523V14.6585C35.3753 12.1924 33.3766 10.1941 30.9105 10.1919H30.7121V10.0792C30.7095 7.61311 28.7112 5.61481 26.2451 5.61149H19.1043C19.023 5.61186 18.9458 5.57749 18.8911 5.51763L16.3001 2.68387C15.4532 1.75862 14.2571 1.23134 13.003 1.22986H4.46662C2.00089 1.23281 0.00295607 3.23112 0 5.69684V30.6287C0.00258656 33.0944 2.00089 35.0927 4.46662 35.0957ZM40.6755 30.6497C40.6755 35.5084 36.7369 39.447 31.8782 39.447C27.0196 39.447 23.081 35.5084 23.081 30.6497C23.081 25.7911 27.0196 21.8525 31.8782 21.8525C36.7347 21.858 40.67 25.7933 40.6755 30.6497ZM30.9109 11.5162C32.6461 11.5177 34.0521 12.9237 34.0543 14.6585V20.7643C30.5114 19.985 26.8219 21.1611 24.3839 23.8475C21.9459 26.5342 21.1318 30.3198 22.2503 33.771H8.03829C8.86858 32.9363 9.33489 31.8063 9.33416 30.6287V14.6585C9.336 12.9241 10.7416 11.5181 12.4765 11.5162H30.9109ZM1.32432 5.69684C1.32617 3.962 2.73215 2.55639 4.46662 2.55418H13.003C13.8854 2.55528 14.7268 2.92627 15.3228 3.57698L17.9123 6.40963C18.2179 6.74477 18.6506 6.93581 19.1043 6.93581H26.2451C27.9803 6.93802 29.3859 8.34437 29.3878 10.0792V10.1919H12.4768C10.0111 10.1945 8.01316 12.1928 8.01021 14.6585V30.6287C8.00799 32.3635 6.60164 33.7691 4.8668 33.771H4.46662C2.73215 33.7691 1.32617 32.3632 1.32432 30.6287V5.69684Z" fill="#FF8A00"/>
<path d="M31.2163 26.8187V29.9876H28.0474C27.6816 29.9876 27.3853 30.2843 27.3853 30.6497C27.3853 31.0156 27.6816 31.3119 28.0474 31.3119H31.2163V34.4808C31.2163 34.8466 31.5127 35.143 31.8785 35.143C32.2443 35.143 32.5407 34.8466 32.5407 34.4808V31.3119H35.7096C36.0754 31.3119 36.3717 31.0156 36.3717 30.6497C36.3717 30.2843 36.0754 29.9876 35.7096 29.9876H32.5407V26.8187C32.5407 26.4532 32.2443 26.1565 31.8785 26.1565C31.5127 26.1565 31.2163 26.4532 31.2163 26.8187Z" fill="#FF8A00"/>
</g>
<defs>
<clipPath id="clip0">
<rect width="42" height="42" fill="white"/>
</clipPath>
</defs>
</svg>
