<svg width="23" height="23" viewBox="0 0 23 23" fill="none" xmlns="http://www.w3.org/2000/svg">
<path d="M17.4584 22.0499H17.4084H10.2771H10.2006L10.2313 21.9798L11.007 20.2107L11.007 20.2107C11.1163 19.9622 11.171 19.6985 11.171 19.425C11.171 18.3407 10.2886 17.4583 9.20421 17.4583C8.11969 17.4583 7.23754 18.3407 7.23754 19.425C7.23754 19.6985 7.29244 19.9631 7.40085 20.2107L8.17525 21.9795L8.20592 22.0496H8.12945H1H0.95V21.9996V5.5915V5.5415H1H7.47698C7.42844 5.49992 7.38489 5.46134 7.32997 5.40751L7.32909 5.40665L7.3291 5.40664C6.84381 4.90699 6.58003 4.25903 6.58003 3.5744C6.58003 2.1273 7.75756 0.95 9.20457 0.95C10.6516 0.95 11.829 2.12731 11.829 3.5744C11.829 4.25976 11.5655 4.90771 11.087 5.39907L11.0844 5.4017L11.0843 5.4016L10.9324 5.53619C10.9323 5.53655 10.9323 5.53688 10.9322 5.53718C10.9316 5.53952 10.9319 5.53915 10.932 5.5366L10.9274 5.54071H10.9325M17.4584 22.0499L17.4721 12.1232C17.4495 12.1232 17.4265 12.1154 17.4084 12.1056V5.64071V5.59071H17.3584H10.9009M17.4584 22.0499V21.9999V15.5359C17.4621 15.5352 17.4658 15.5347 17.4694 15.5345L17.5976 15.6745L17.5975 15.6746L17.5996 15.6766C18.0927 16.1559 18.7411 16.4196 19.4251 16.4196C20.8718 16.4196 22.0493 15.2425 22.0493 13.7951C22.0493 12.3484 20.8717 11.1707 19.4251 11.1707C18.7419 11.1707 18.0935 11.4344 17.5939 11.9192L17.5932 11.9199C17.5461 11.9672 17.5074 12.0101 17.4759 12.0449C17.4698 12.0517 17.4639 12.0582 17.4584 12.0643M17.4584 22.0499V12.0643M10.9325 5.54071C10.9335 5.54632 10.9363 5.55382 10.9423 5.56262L10.9009 5.59071M10.9325 5.54071H17.4084H17.4584V5.59071V12.0643M10.9325 5.54071C10.9322 5.53919 10.932 5.53782 10.932 5.53659L17.4584 12.0643M10.9009 5.59071V5.54071H10.9198L10.9156 5.536L10.89 5.50703C10.884 5.52083 10.882 5.5309 10.882 5.536C10.882 5.55448 10.8892 5.57346 10.9009 5.59071ZM16.5164 6.48334V12.2115C16.5164 12.3191 16.5447 12.4239 16.5995 12.5193L16.5996 12.5195C16.8571 12.9621 17.419 13.1863 17.9653 12.882L17.9654 12.8822L17.9689 12.8798C18.0332 12.8365 18.1083 12.7646 18.1643 12.6944L18.1669 12.6912C18.1951 12.6566 18.222 12.6235 18.2561 12.5891C18.5728 12.2817 18.9881 12.1127 19.425 12.1127C20.3523 12.1127 21.1072 12.868 21.1072 13.7958C21.1072 14.7231 20.3527 15.4781 19.425 15.4781C18.9882 15.4781 18.5735 15.3094 18.2579 15.0034L18.1031 14.8312L18.1034 14.8309L18.0986 14.8267L18.0156 14.7552L18.0159 14.7548L18.0103 14.7512C17.5478 14.4492 16.8689 14.6218 16.6005 15.0843C16.5454 15.1773 16.5164 15.285 16.5164 15.394V21.1081H11.6421L11.8701 20.5886C12.0317 20.2205 12.1132 19.8293 12.1132 19.425C12.1132 17.8213 10.8085 16.5164 9.20457 16.5164C7.60047 16.5164 6.29599 17.8213 6.29599 19.425C6.29599 19.8289 6.37778 20.2201 6.53842 20.5877L6.53843 20.5878L6.76572 21.1072H1.89191V6.48284H7.61924C7.72738 6.48284 7.8341 6.45403 7.92841 6.399C8.23859 6.21875 8.43157 5.88842 8.43157 5.53636C8.43157 5.37428 8.38958 5.21328 8.2896 5.03375L8.28976 5.03366L8.28737 5.03012C8.24403 4.96585 8.16959 4.88802 8.09515 4.82816L8.09479 4.82788C8.06364 4.8033 8.03277 4.77774 7.99688 4.74264C7.69039 4.42642 7.52144 4.01189 7.52144 3.57433C7.52144 2.64638 8.27611 1.89184 9.20407 1.89184C10.132 1.89184 10.8866 2.64637 10.8866 3.57433C10.8866 4.00547 10.7238 4.41344 10.3993 4.75479L10.2866 4.84939L10.2863 4.84903L10.2816 4.85417L10.1655 4.98264L10.1651 4.98224L10.1609 4.98868C10.0497 5.15773 9.99044 5.34706 9.99044 5.53679C9.99044 5.89017 10.1848 6.22129 10.497 6.40179L10.4972 6.40188C10.5897 6.45494 10.6956 6.48334 10.8028 6.48334H16.5164Z" fill="#FF8A00" stroke="#FF8A00" stroke-width="0.1"/>
</svg>
