<svg width="53" height="53" viewBox="0 0 53 53" fill="none" xmlns="http://www.w3.org/2000/svg">
<g clip-path="url(#clip0)">
<path d="M26.5 8.24188C16.4324 8.24188 8.24194 16.4323 8.24194 26.5C8.24194 36.5676 16.4324 44.7581 26.5 44.7581C36.5677 44.7581 44.7581 36.5676 44.7581 26.5C44.7581 16.4323 36.5677 8.24188 26.5 8.24188ZM26.5 43.041C17.3793 43.041 9.95896 35.6208 9.95896 26.5C9.95896 17.3791 17.3793 9.9589 26.5 9.9589C35.6208 9.9589 43.0411 17.3792 43.0411 26.5C43.0411 35.6207 35.6208 43.041 26.5 43.041Z" fill="#FF8A00"/>
<path d="M27.3585 25.8445V19.1511C30.1635 19.3765 32.0518 20.6816 32.0518 21.8639C32.0518 22.338 32.4361 22.7225 32.9103 22.7225C33.3844 22.7225 33.7689 22.3381 33.7689 21.8639C33.7689 19.5394 31.0153 17.6835 27.3585 17.4301V16.4266C27.3585 15.9524 26.9741 15.568 26.4999 15.568C26.0258 15.568 25.6414 15.9523 25.6414 16.4266V17.4301C21.9846 17.6835 19.231 19.5394 19.231 21.8639C19.231 24.9781 22.192 26.1932 25.6414 27.1554V33.8489C22.8363 33.6233 20.9481 32.3184 20.9481 31.136C20.9481 30.6619 20.5637 30.2775 20.0895 30.2775C19.6154 30.2775 19.231 30.6618 19.231 31.136C19.231 33.4606 21.9846 35.3164 25.6414 35.5698V36.5734C25.6414 37.0475 26.0257 37.4319 26.4999 37.4319C26.974 37.4319 27.3585 37.0476 27.3585 36.5734V35.5698C31.0153 35.3164 33.7689 33.4606 33.7689 31.136C33.7688 28.0219 30.8078 26.8068 27.3585 25.8445ZM25.6414 25.3672C22.1593 24.3384 20.9481 23.4039 20.9481 21.8639C20.9481 20.6816 22.8363 19.3765 25.6414 19.1511V25.3672ZM27.3585 33.8489V27.6327C30.8405 28.6616 32.0518 29.596 32.0518 31.136C32.0518 32.3184 30.1635 33.6234 27.3585 33.8489Z" fill="#FF8A00"/>
<path d="M45.2384 7.76171C40.2333 2.75641 33.5785 0 26.5001 0C18.8798 0 11.7646 3.2064 6.73284 8.85059L7.20311 5.55879C7.27009 5.08935 6.94391 4.65458 6.47457 4.5875C6.00502 4.52094 5.57036 4.8467 5.50328 5.31594L4.58748 11.7264C4.54545 12.0209 4.65891 12.3162 4.88726 12.507C5.04398 12.6377 5.23921 12.7063 5.43755 12.7063C5.52844 12.7063 5.62015 12.6919 5.70897 12.6622L11.2036 10.8307C11.6535 10.6807 11.8965 10.1946 11.7466 9.74475C11.5965 9.29488 11.1105 9.05161 10.6606 9.20171L7.90008 10.122C12.6121 4.76389 19.3163 1.71701 26.5001 1.71701C33.1198 1.71701 39.3434 4.29486 44.0243 8.97574C48.7052 13.6567 51.2831 19.8802 51.2831 26.5C51.2831 33.1198 48.7052 39.3433 44.0243 44.0243C39.3434 48.7051 33.1199 51.283 26.5001 51.283C26.026 51.283 25.6415 51.6673 25.6415 52.1415C25.6415 52.6156 26.0259 53.0001 26.5001 53.0001C33.5785 53.0001 40.2333 50.2437 45.2384 45.2384C50.2435 40.2331 53.0001 33.5784 53.0001 26.5C53.0001 19.4216 50.2437 12.7668 45.2384 7.76171Z" fill="#FF8A00"/>
<path d="M22.9587 51.0318C22.6668 50.99 22.3728 50.9427 22.0849 50.8909C21.618 50.8067 21.1719 51.1172 21.0879 51.5839C21.004 52.0506 21.3142 52.497 21.781 52.5809C22.089 52.6363 22.4034 52.687 22.7155 52.7316C22.7567 52.7375 22.7977 52.7404 22.8382 52.7404C23.2584 52.7404 23.6257 52.4314 23.687 52.0035C23.754 51.5339 23.428 51.0991 22.9587 51.0318Z" fill="#FF8A00"/>
<path d="M18.7627 50.0515C18.2223 49.8741 17.6809 49.6751 17.1535 49.4602C16.7146 49.2816 16.2134 49.4921 16.0344 49.9314C15.8555 50.3706 16.0665 50.8716 16.5056 51.0506C17.0698 51.2805 17.649 51.4932 18.2272 51.683C18.3162 51.7122 18.4064 51.7261 18.4952 51.7261C18.8561 51.7261 19.192 51.4967 19.3108 51.1351C19.4586 50.6844 19.2132 50.1994 18.7627 50.0515Z" fill="#FF8A00"/>
<path d="M2.287 31.8093C2.16578 31.2536 2.06248 30.6864 1.97997 30.1233C1.91114 29.654 1.47554 29.3299 1.0062 29.3982C0.536966 29.467 0.212341 29.903 0.281179 30.372C0.369478 30.9743 0.479826 31.581 0.609531 32.1752C0.697208 32.5769 1.05268 32.851 1.44749 32.851C1.50815 32.851 1.56974 32.8446 1.63133 32.8311C2.09446 32.73 2.38814 32.2726 2.287 31.8093Z" fill="#FF8A00"/>
<path d="M1.99783 18.8696C1.54102 18.7441 1.06826 19.0131 0.942799 19.4705C0.781728 20.0571 0.639291 20.6574 0.51942 21.2545C0.426049 21.7193 0.727176 22.1719 1.19206 22.2653C1.2492 22.2768 1.30593 22.2823 1.36204 22.2823C1.76254 22.2823 2.12101 22.0004 2.20279 21.5926C2.3149 21.0345 2.44812 20.4732 2.59863 19.9247C2.72399 19.4675 2.45516 18.995 1.99783 18.8696Z" fill="#FF8A00"/>
<path d="M3.89829 36.6816C3.66434 36.1632 3.44572 35.6299 3.24842 35.0966C3.08393 34.6519 2.58996 34.4247 2.14536 34.5892C1.70065 34.7537 1.47354 35.2476 1.63803 35.6923C1.84899 36.2627 2.08283 36.8331 2.33313 37.3879C2.4764 37.7056 2.78891 37.8935 3.11623 37.8935C3.23424 37.8935 3.35421 37.8689 3.4688 37.8173C3.90108 37.6222 4.09321 37.1138 3.89829 36.6816Z" fill="#FF8A00"/>
<path d="M0.956588 24.0828C0.482693 24.0541 0.076498 24.415 0.0481348 24.8884C0.016252 25.4216 0 25.9638 0 26.5008C0 26.574 0.000310547 26.647 0.000931641 26.7201C0.0046582 27.1919 0.388287 27.5718 0.859387 27.5718C0.861561 27.5718 0.863941 27.5718 0.866219 27.5718C1.34032 27.5681 1.72167 27.1807 1.71805 26.7066C1.71753 26.6375 1.71712 26.5685 1.71712 26.5C1.71712 25.998 1.73233 25.4905 1.76225 24.9913C1.79072 24.518 1.42996 24.1113 0.956588 24.0828Z" fill="#FF8A00"/>
<path d="M14.0776 47.9497C13.5859 47.6643 13.0973 47.3576 12.6253 47.0382C12.2325 46.7725 11.6989 46.8753 11.4331 47.2679C11.1672 47.6606 11.2701 48.1943 11.6628 48.4601C12.1673 48.8017 12.6899 49.1295 13.2156 49.4347C13.3512 49.5135 13.4993 49.5508 13.6458 49.5508C13.9419 49.5508 14.2299 49.3975 14.3892 49.123C14.6273 48.7132 14.4877 48.1877 14.0776 47.9497Z" fill="#FF8A00"/>
<path d="M6.48354 41.1161C6.14763 40.6568 5.82353 40.18 5.51992 39.6985C5.26713 39.2974 4.73703 39.1771 4.3358 39.4301C3.93468 39.683 3.8146 40.2131 4.06749 40.6143C4.39201 41.129 4.73858 41.6389 5.09768 42.1298C5.26589 42.3597 5.52685 42.4815 5.79123 42.4815C5.96721 42.4815 6.14463 42.4275 6.29742 42.3158C6.68022 42.0358 6.76355 41.4988 6.48354 41.1161Z" fill="#FF8A00"/>
<path d="M9.9264 44.9263C9.50333 44.5456 9.08803 44.1451 8.69208 43.7362C8.36228 43.3955 7.81893 43.3867 7.47816 43.7166C7.13749 44.0464 7.12869 44.5899 7.45859 44.9305C7.88176 45.3677 8.32564 45.7957 8.77779 46.2026C8.94197 46.3503 9.14735 46.423 9.35189 46.423C9.58677 46.423 9.82071 46.3272 9.99027 46.1389C10.3074 45.7863 10.2788 45.2435 9.9264 44.9263Z" fill="#FF8A00"/>
<path d="M3.69469 14.735C3.26624 14.5316 2.75414 14.714 2.55074 15.1421C2.41596 15.4257 2.2846 15.7155 2.16017 16.0037C1.97219 16.4389 2.1727 16.9443 2.60798 17.1322C2.71895 17.1801 2.83437 17.2028 2.94793 17.2028C3.28011 17.2028 3.59655 17.0089 3.73651 16.6845C3.85286 16.4152 3.97563 16.1441 4.10171 15.8789C4.30512 15.4505 4.12293 14.9385 3.69469 14.735Z" fill="#FF8A00"/>
</g>
<defs>
<clipPath id="clip0">
<rect width="53" height="53" fill="white"/>
</clipPath>
</defs>
</svg>
