<svg width="54" height="53" viewBox="0 0 54 53" fill="none" xmlns="http://www.w3.org/2000/svg">
<g clip-path="url(#clip0)">
<path d="M44.5845 9.35803V4.41667C44.5815 1.97867 42.6151 0.00309167 40.1884 0H5.01941C2.59275 0.00309167 0.626368 1.97867 0.623291 4.41667V23.85C0.630105 26.1058 2.33206 27.9924 4.56574 28.2212L7.87074 36.8405C8.74381 39.1164 11.2878 40.2502 13.5534 39.3741L34.1921 31.3866C32.766 35.1291 33.1718 39.3273 35.2872 42.7244L35.7923 43.536V52.1167C35.7923 52.6047 36.1857 53 36.6715 53H52.4976C52.9833 53 53.3768 52.6047 53.3768 52.1167V22.9589C53.3684 19.9042 52.158 16.9772 50.0082 14.8168L44.5845 9.35803ZM44.5845 14.6408L47.253 21.6001C47.7759 22.9662 47.0982 24.499 45.7387 25.0248L44.2135 25.6167C44.457 25.0597 44.5832 24.4577 44.5845 23.85V14.6408ZM2.38174 23.85V4.41667C2.38174 2.95342 3.56298 1.76667 5.01941 1.76667H40.1884C41.6448 1.76667 42.8261 2.95342 42.8261 4.41667V10.0311H42.8184L42.8261 10.0512V23.85C42.8193 24.0041 42.7993 24.157 42.7663 24.3076L34.7126 16.2153C32.9023 14.4385 30.0162 14.4248 28.1896 16.1831C26.3626 17.9425 26.2529 20.8398 27.9426 22.7324L31.3759 26.5H5.01941C3.56298 26.5 2.38174 25.3132 2.38174 23.85ZM13.6455 28.2667L7.39332 30.685L6.46838 28.2667H13.6455ZM12.921 37.7252C11.5617 38.2516 10.0352 37.5708 9.51137 36.2052L8.02812 32.33L18.5234 28.2667V28.2614H32.9876L34.1303 29.5131L12.921 37.7252ZM51.6183 51.2333H37.5507V44.1667H51.6183V51.2333ZM51.6183 42.4H37.1595L36.7781 41.7878C34.6343 38.3459 34.5491 33.9986 36.5555 30.475C36.7454 30.1415 36.6988 29.7228 36.4403 29.4397L29.2352 21.5427C28.1608 20.3613 28.2213 18.5348 29.3715 17.4282C30.5222 16.3214 32.3411 16.3395 33.4692 17.4684L47.4798 31.5412L48.723 30.2922L45.4699 27.0238L46.372 26.6705C48.6356 25.7931 49.7636 23.2394 48.8927 20.9639L45.9168 13.2003L48.765 16.0678C50.585 17.8959 51.6113 20.3732 51.6183 22.9589V42.4Z" fill="#FF8A00"/>
<path d="M10.6464 12.3667C11.909 12.3667 12.9324 11.3385 12.9324 10.07V5.82999C12.9324 4.56153 11.909 3.53333 10.6464 3.53333H6.42612C5.16355 3.53333 4.14014 4.56153 4.14014 5.82999V10.07C4.14014 11.3385 5.16355 12.3667 6.42612 12.3667H10.6464ZM5.89859 10.07V8.83333H7.65704V7.06666H5.89859V5.82999C5.89859 5.53739 6.13488 5.29999 6.42612 5.29999H10.6464C10.9376 5.29999 11.1739 5.53739 11.1739 5.82999V7.06666H9.41549V8.83333H11.1739V10.07C11.1739 10.3626 10.9376 10.6 10.6464 10.6H6.42612C6.13488 10.6 5.89859 10.3626 5.89859 10.07Z" fill="#FF8A00"/>
<path d="M5.01929 15.0167H8.53619V16.7833H5.01929V15.0167Z" fill="#FF8A00"/>
<path d="M5.01929 20.3167H8.53619V22.0833H5.01929V20.3167Z" fill="#FF8A00"/>
<path d="M20.8455 20.3167H24.3624V22.0833H20.8455V20.3167Z" fill="#FF8A00"/>
<path d="M10.2947 15.0167H13.8116V16.7833H10.2947V15.0167Z" fill="#FF8A00"/>
<path d="M15.5701 15.0167H19.087V16.7833H15.5701V15.0167Z" fill="#FF8A00"/>
<path d="M20.8455 15.0167H24.3624V16.7833H20.8455V15.0167Z" fill="#FF8A00"/>
<path d="M37.5508 4.41669H39.3092V7.06669H37.5508V4.41669Z" fill="#FF8A00"/>
<path d="M34.0339 4.41669H35.7924V7.06669H34.0339V4.41669Z" fill="#FF8A00"/>
<path d="M30.5168 4.41669H32.2753V7.06669H30.5168V4.41669Z" fill="#FF8A00"/>
<path d="M27 4.41669H28.7584V7.06669H27V4.41669Z" fill="#FF8A00"/>
<path d="M39.3093 45.9333H41.0678V47.7H39.3093V45.9333Z" fill="#FF8A00"/>
</g>
<defs>
<clipPath id="clip0">
<rect x="0.623291" width="52.7535" height="53" fill="white"/>
</clipPath>
</defs>
</svg>
