<svg width="21" height="25" viewBox="0 0 21 25" fill="none" xmlns="http://www.w3.org/2000/svg">
<path d="M20.7598 21.0866L18.9702 18.1054C18.1452 16.7293 17.7088 15.1543 17.7088 13.5491V10.9376C17.7088 6.91787 14.4369 3.646 10.4171 3.646C6.39735 3.646 3.12547 6.91787 3.12547 10.9376V13.5491C3.12547 15.1543 2.689 16.7293 1.864 18.1054L0.0743967 21.0866C-0.0224783 21.247 -0.0245778 21.4481 0.0671214 21.6106C0.159846 21.7741 0.333772 21.8752 0.521272 21.8752H20.3129C20.5004 21.8752 20.6744 21.7742 20.7671 21.6106C20.8588 21.448 20.8567 21.247 20.7598 21.0866ZM1.4411 20.8335L2.75672 18.6408C3.67962 17.1033 4.16712 15.3429 4.16712 13.5491V10.9376C4.16712 7.49077 6.97025 4.68765 10.4171 4.68765C13.864 4.68765 16.6671 7.49077 16.6671 10.9376V13.5491C16.6671 15.3429 17.1546 17.1033 18.0765 18.6408L19.3931 20.8335H1.4411Z" fill="#FF8A00"/>
<path d="M10.4169 0C9.26788 0 8.3335 0.934375 8.3335 2.08335V4.1667C8.3335 4.45415 8.56685 4.6875 8.85435 4.6875C9.14185 4.6875 9.3752 4.45415 9.3752 4.16665V2.08335C9.3752 1.50835 9.84185 1.0417 10.4169 1.0417C10.9919 1.0417 11.4585 1.50835 11.4585 2.08335V4.1667C11.4585 4.45415 11.6919 4.6875 11.9794 4.6875C12.2669 4.6875 12.5002 4.45415 12.5002 4.16665V2.08335C12.5002 0.934375 11.5658 0 10.4169 0Z" fill="#FF8A00"/>
<path d="M12.6713 21.0906C12.5244 20.8427 12.2067 20.7615 11.9578 20.9042C11.7088 21.05 11.6255 21.3698 11.7713 21.6177C11.9067 21.8479 11.9807 22.124 11.9807 22.3958C11.9807 23.2573 11.2797 23.9583 10.4182 23.9583C9.55673 23.9583 8.85571 23.2573 8.85571 22.3958C8.85571 22.124 8.92968 21.8479 9.06508 21.6177C9.20986 21.3687 9.12656 21.05 8.87861 20.9042C8.62759 20.7614 8.31089 20.8427 8.16509 21.0906C7.93486 21.4844 7.81299 21.9354 7.81299 22.3959C7.81304 23.8323 8.98071 25 10.4172 25C11.8536 25 13.0213 23.8323 13.0234 22.3959C13.0234 21.9354 12.9015 21.4844 12.6713 21.0906Z" fill="#FF8A00"/>
</svg>
