<svg width="34" height="28" viewBox="0 0 34 28" fill="none" xmlns="http://www.w3.org/2000/svg">
<path d="M18.128 19.3817H27.1918C27.5317 19.3817 27.7583 19.1551 27.7583 18.8152V13.7168C27.7583 13.3769 27.5317 13.1503 27.1918 13.1503H18.128C17.7881 13.1503 17.5615 13.3769 17.5615 13.7168V18.8152C17.5615 19.155 17.7881 19.3817 18.128 19.3817ZM18.6945 14.2833H26.6253V18.2487H18.6945V14.2833Z" fill="#FF8F0C"/>
<path d="M33.4795 6.1258C33.083 5.61596 32.5732 5.33269 31.95 5.27607L30.5904 5.1113V3.5199V2.38697C30.5904 1.14071 29.5708 0.121033 28.3245 0.121033H2.26594C1.01968 0.120966 0 1.14065 0 2.38697V3.51997V8.05191V20.5147C0 21.5379 0.687555 22.4078 1.62332 22.6867C1.59478 23.8326 2.46184 24.8275 3.62558 24.9333L29.7974 27.879C29.854 27.879 29.9673 27.879 30.024 27.879C31.157 27.879 32.1767 27.0293 32.2899 25.953L33.9894 7.76864C34.046 7.20211 33.8761 6.57895 33.4795 6.1258ZM1.133 4.08644H29.4575V5.55933V7.48538H1.133V4.08644ZM2.26594 1.25397H28.3244C28.9476 1.25397 29.4574 1.76381 29.4574 2.38697V2.95344H1.133V2.38697C1.133 1.76381 1.64284 1.25397 2.26594 1.25397ZM1.133 20.5146V8.61831H29.4575V20.5146C29.4575 21.1378 28.9477 21.6476 28.3245 21.6476H2.32263H2.266C1.64284 21.6476 1.133 21.1378 1.133 20.5146ZM32.8564 7.542L31.1569 25.7263C31.1003 26.3495 30.5337 26.8026 29.9107 26.746L3.79546 23.8003C3.22899 23.7437 2.8324 23.2904 2.77578 22.7806H28.3244C29.5707 22.7806 30.5904 21.7609 30.5904 20.5147V8.05184V6.18243L31.8933 6.29575C32.1766 6.29575 32.4598 6.4657 32.6297 6.69227C32.7997 6.91884 32.9131 7.25874 32.8564 7.542Z" fill="#FF8F0C"/>
</svg>
