<svg width="42" height="42" viewBox="0 0 42 42" fill="none" xmlns="http://www.w3.org/2000/svg">
<g clip-path="url(#clip0)">
<path d="M26.908 14.8656L26.9178 14.7566C26.9541 14.3547 26.9738 13.9479 26.9738 13.5368C26.9738 6.12779 20.9457 0.1 13.5368 0.1C11.1766 0.1 8.85502 0.72091 6.82306 1.89512L6.82304 1.89513C6.47868 2.09403 6.36076 2.53465 6.55968 2.87905C6.7589 3.22374 7.19953 3.34137 7.54396 3.14243C9.35723 2.09441 11.4294 1.54062 13.5368 1.54062C20.1516 1.54062 25.5332 6.92191 25.5332 13.5368C25.5332 20.1516 20.1516 25.5332 13.5368 25.5332C10.7682 25.5332 8.1665 24.6157 6.01428 22.8806M26.908 14.8656L6.07704 22.8028M26.908 14.8656H27.0174H38.5547C40.3993 14.8656 41.9 16.3663 41.9 18.2109V34.125C41.9 35.9693 40.3993 37.4703 38.5547 37.4703H36.9961H36.8961V37.5703V41.1794C36.8961 41.4579 36.7357 41.7112 36.4841 41.8305C36.3859 41.8769 36.2808 41.8997 36.1758 41.8997C36.0124 41.8997 35.8507 41.8445 35.7198 41.7371L35.7197 41.7371L30.5322 37.4929L30.5045 37.4703H30.4688H18.8669C17.0226 37.4703 15.5219 35.9693 15.5219 34.125V26.9418V26.8269L15.408 26.8428C14.7963 26.9284 14.1719 26.9738 13.5368 26.9738C10.6192 26.9738 7.75997 26.0126 5.43877 24.2591L5.4001 24.2299L5.3532 24.2422L1.86463 25.1541C1.5956 25.2245 1.31032 25.1339 1.13139 24.9212C0.952396 24.7084 0.911648 24.4119 1.02697 24.159L1.02701 24.1589L2.40039 21.1414L2.4236 21.0904L2.39223 21.044C0.891 18.8224 0.1 16.2371 0.1 13.5368C0.1 11.1703 0.724085 8.84295 1.90433 6.80686C2.10413 6.46241 2.54476 6.34538 2.88887 6.54487C3.23297 6.74435 3.35033 7.18496 3.15084 7.5294C2.09733 9.34655 1.54062 11.4239 1.54062 13.5368C1.54062 16.0909 2.33331 18.5298 3.83258 20.589M26.908 14.8656L3.91347 20.5302M6.01428 22.8806L6.07704 22.8028M6.01428 22.8806C6.01429 22.8806 6.0143 22.8806 6.01432 22.8806L6.07704 22.8028M6.01428 22.8806C5.82649 22.7294 5.57749 22.684 5.35044 22.7535L5.34646 22.7548L5.34644 22.7547L3.16908 23.3241L2.96569 23.3773L3.05276 23.1859L3.90576 21.3114L3.90579 21.3113C4.01351 21.0751 3.98545 20.7993 3.83258 20.589M6.07704 22.8028C5.86299 22.6304 5.57941 22.5788 5.32114 22.6579L3.26849 23.1947L3.2348 23.2688L3.14378 23.2273L3.11848 23.1306L3.19717 23.11L3.99678 21.3528C4.11951 21.0836 4.08746 20.7696 3.91347 20.5302M3.83258 20.589C3.83259 20.5891 3.83261 20.5891 3.83262 20.5891L3.91347 20.5302M3.83258 20.589L3.91347 20.5302M35.2921 39.5258L35.4555 39.6594V39.4484V36.75C35.4555 36.3521 35.7779 36.0297 36.1758 36.0297H38.5547C39.6052 36.0297 40.4594 35.1752 40.4594 34.125V18.2109C40.4594 17.1604 39.6052 16.3062 38.5547 16.3062H26.7665H26.6859L26.6688 16.3851C25.6056 21.293 21.8529 25.2099 17.0364 26.5104L16.9625 26.5304V26.607V34.125C16.9625 35.1752 17.8167 36.0297 18.8669 36.0297H30.4458C30.6691 36.0297 30.8167 36.0301 30.9368 36.0533C31.05 36.0752 31.1381 36.1175 31.2365 36.2074L31.2364 36.2075L31.2406 36.2109L35.2921 39.5258Z" fill="#FF8A00" stroke="white" stroke-width="0.2"/>
<path d="M32.6624 28.5476L32.7505 28.5061C32.995 28.3908 33.1641 28.1429 33.1641 27.855C33.1641 27.4575 32.8417 27.1347 32.4438 27.1347H32.108H32.0427L32.0164 27.0749L29.3709 21.0457C29.3709 21.0456 29.3709 21.0456 29.3709 21.0456C29.2558 20.7836 28.9969 20.6145 28.7111 20.6145C28.4252 20.6145 28.1664 20.7836 28.0516 21.0456L28.0515 21.0456L25.406 27.0749L25.3798 27.1347H25.3145H24.9786C24.5808 27.1347 24.2583 27.4575 24.2583 27.855C24.2583 28.1429 24.4274 28.3908 24.672 28.5061L24.7601 28.5476L24.7209 28.6367L23.7356 30.8823C23.7356 30.8823 23.7356 30.8823 23.7356 30.8823C23.5758 31.2467 23.7415 31.6716 24.1056 31.8314L32.6624 28.5476ZM32.6624 28.5476L32.7015 28.6367M32.6624 28.5476L32.7015 28.6367M32.7015 28.6367L33.6869 30.8823L33.6869 30.8824C33.847 31.2467 33.681 31.6716 33.3169 31.8314C33.2225 31.8728 33.1244 31.8922 33.028 31.8922C32.7503 31.8922 32.4862 31.731 32.3678 31.4611L32.3678 31.4611L31.1277 28.6352L31.1015 28.5754H31.0361H26.3863H26.321L26.2947 28.6352L25.0547 31.4611L25.0547 31.4611M32.7015 28.6367L25.0547 31.4611M25.0547 31.4611C24.8948 31.8255 24.47 31.9912 24.1056 31.8314L25.0547 31.4611ZM27.0144 26.9945L26.9529 27.1347H27.106H30.3161H30.4692L30.4077 26.9945L28.8026 23.3365L28.7111 23.1278L28.6195 23.3365L27.0144 26.9945Z" fill="#FF8A00" stroke="white" stroke-width="0.2"/>
<path d="M13.5801 15.523L13.4888 15.319L13.3976 15.523C12.5831 17.3437 11.1907 18.8876 9.38084 19.8802C9.27058 19.9405 9.15194 19.9691 9.03511 19.9691C8.78053 19.9691 8.53385 19.8337 8.40276 19.5948C8.21146 19.2459 8.33919 18.8081 8.6881 18.6168C10.8572 17.4276 12.3171 15.3013 12.6796 12.8993L12.6969 12.7843H12.5807H9.70514C9.30728 12.7843 8.98483 12.4619 8.98483 12.064C8.98483 11.6662 9.30728 11.3437 9.70514 11.3437H12.6685H12.7685V11.2437V7.82532C12.7685 7.42745 13.091 7.105 13.4888 7.105C13.8867 7.105 14.2091 7.42745 14.2091 7.82532V11.2437V11.3437H14.3091H18.039C18.4369 11.3437 18.7593 11.6662 18.7593 12.064C18.7593 12.4619 18.4369 12.7843 18.039 12.7843H14.3969H14.2807L14.2981 12.8993C14.6606 15.3013 16.1205 17.4273 18.2896 18.6168C18.6385 18.8081 18.7662 19.2459 18.5749 19.5948C18.4438 19.8337 18.1971 19.9691 17.9426 19.9691C17.8257 19.9691 17.7071 19.9405 17.5968 19.8802C15.787 18.8876 14.3949 17.3437 13.5801 15.523Z" fill="#FF8A00" stroke="white" stroke-width="0.2"/>
<path d="M8 2C6 3 3.5 5.5 2 8" stroke="#FF8A00" stroke-width="1.2"/>
</g>
<defs>
<clipPath id="clip0">
<rect width="42" height="42" fill="white"/>
</clipPath>
</defs>
</svg>
