<svg width="44" height="44" viewBox="0 0 44 44" fill="none" xmlns="http://www.w3.org/2000/svg">
<path d="M30.8004 4.7666C29.1826 4.7666 27.8671 6.08222 27.8671 7.69991V8.23014L10.7276 15.0854C10.4497 15.1976 10.2671 15.4667 10.2671 15.7666V26.0333C10.2671 26.3332 10.4497 26.6024 10.7276 26.7138L27.8671 33.5691V34.1C27.8671 35.7178 29.1827 37.0333 30.8004 37.0333C32.4181 37.0333 33.7337 35.7177 33.7337 34.1V7.69991C33.7337 6.08213 32.4182 4.7666 30.8004 4.7666ZM32.2671 34.0999C32.2671 34.9087 31.6093 35.5666 30.8004 35.5666C29.9915 35.5666 29.3337 34.9088 29.3337 34.0999V33.0732C29.3337 32.7725 29.1511 32.5034 28.8725 32.392L11.7337 25.5368V16.2631L28.8725 9.40783C29.1512 9.29559 29.3337 9.02652 29.3337 8.7266V7.69991C29.3337 6.89106 29.9915 6.23321 30.8004 6.23321C31.6093 6.23321 32.2671 6.89098 32.2671 7.69991V34.0999Z" fill="#FF8A00"/>
<path d="M11 15.0333H5.8667C2.63192 15.0333 0 17.6653 0 20.9C0 24.1348 2.63192 26.7667 5.8667 26.7667H11C11.4048 26.7667 11.7333 26.439 11.7333 26.0334V15.7667C11.7333 15.3619 11.4048 15.0333 11 15.0333ZM10.2667 25.3H5.8667C3.44008 25.3 1.4667 23.3266 1.4667 20.9C1.4667 18.4734 3.44008 16.5 5.8667 16.5H10.2667V25.3Z" fill="#FF8A00"/>
<path d="M37.6322 18.0042L33.2322 16.5375C33.0078 16.4634 32.7635 16.5008 32.5714 16.6387C32.38 16.7765 32.2671 16.998 32.2671 17.2335V24.5668C32.2671 24.8022 32.38 25.0236 32.5714 25.1622C32.6982 25.2532 32.8486 25.3001 33.0004 25.3001C33.0782 25.3001 33.1566 25.2876 33.2322 25.2619L37.6322 23.7952C37.9321 23.6962 38.1338 23.4161 38.1338 23.1V18.7C38.1337 18.384 37.9321 18.1046 37.6322 18.0042ZM36.6671 22.5713L33.7338 23.5488V18.2505L36.6671 19.2281V22.5713Z" fill="#FF8A00"/>
<path d="M14.5988 35.1948L13.8626 34.4578L11.7117 25.8558C11.6303 25.5295 11.337 25.2999 11.0004 25.2999H5.13364C4.90926 25.2999 4.69802 25.4026 4.55872 25.5772C4.41941 25.7532 4.36802 25.9827 4.41941 26.2012L7.35272 38.6679C7.43264 39.0046 7.73256 39.2333 8.06626 39.2333C8.11249 39.2333 8.15864 39.2289 8.20556 39.2194L13.7129 38.1561C13.7202 38.1546 13.7276 38.1532 13.7349 38.1517C14.0576 38.0791 14.3523 37.9178 14.587 37.6868C14.9214 37.356 15.107 36.916 15.1099 36.4452C15.1129 35.9751 14.9325 35.5322 14.5988 35.1948ZM13.5567 36.6424C13.5193 36.6798 13.4724 36.7055 13.421 36.7186L8.61987 37.6463L6.05979 26.7665H10.4276L12.4897 35.0107C12.5219 35.1398 12.5887 35.2578 12.6826 35.3517L13.5596 36.2288C13.6337 36.3028 13.6439 36.3901 13.6439 36.4363C13.6433 36.4811 13.6316 36.5683 13.5567 36.6424Z" fill="#FF8A00"/>
<path d="M29.3334 8.43323H27.8667V33.3665H29.3334V8.43323Z" fill="#FF8A00"/>
</svg>
