<svg width="38" height="38" viewBox="0 0 38 38" fill="none" xmlns="http://www.w3.org/2000/svg">
<path d="M0.475 19.0001C0.475 8.78585 8.78574 0.475 19 0.475C29.2143 0.475 37.525 8.78585 37.525 19.0001C37.525 29.2144 29.2143 37.525 19 37.525C8.78573 37.525 0.475 29.2144 0.475 19.0001ZM2.97955 19.0001C2.97955 27.8342 10.1658 35.0205 19 35.0205C27.8341 35.0205 35.0205 27.8342 35.0205 19.0001C35.0205 10.166 27.8342 2.97955 19 2.97955C10.1658 2.97955 2.97955 10.166 2.97955 19.0001Z" fill="#FF8A00" stroke="white" stroke-width="0.95"/>
<path d="M17.1723 10.3646C17.1723 9.35619 17.9928 8.53555 18.9998 8.53555C20.0069 8.53555 20.8274 9.35619 20.8274 10.3646C20.8274 11.3715 20.0073 12.1916 18.9998 12.1916C17.9924 12.1916 17.1723 11.3715 17.1723 10.3646Z" fill="#FF8A00" stroke="white" stroke-width="0.95"/>
<path d="M17.7479 17.8485C17.7479 17.1569 18.3086 16.5962 19.0002 16.5962C19.6918 16.5962 20.2525 17.1569 20.2525 17.8485V28.2121C20.2525 28.9037 19.6918 29.4644 19.0002 29.4644C18.3086 29.4644 17.7479 28.9037 17.7479 28.2121V17.8485Z" fill="#FF8A00" stroke="white" stroke-width="0.95"/>
</svg>
