<svg width="23" height="23" viewBox="0 0 23 23" fill="none" xmlns="http://www.w3.org/2000/svg">
<path d="M16.5177 2.5404C16.1555 2.06525 15.7321 1.86296 15.4498 1.77357C15.2475 1.49131 14.8382 1.01616 14.1467 0.635099C13.4316 0.2117 12.6272 0 11.7427 0C11.5828 0 11.4228 0.00940888 11.2817 0.0188178L10.148 0.33172C10.1487 0.331326 10.1482 0.331606 10.1474 0.331959M16.5177 2.5404L16.438 2.60073C16.438 2.60078 16.4381 2.60084 16.4381 2.6009M16.5177 2.5404L16.4382 2.60102C16.4382 2.60098 16.4381 2.60094 16.4381 2.6009M16.5177 2.5404C17.2046 3.44835 17.3692 4.92084 17.0023 6.92023L6.04499 6.79295M16.4381 2.6009C16.0913 2.14606 15.6874 1.95371 15.4196 1.86891L15.3879 1.85886L15.3685 1.83183C15.1724 1.5582 14.7736 1.09473 14.0984 0.722683L14.0957 0.721188L14.0957 0.721147C13.3972 0.307521 12.6105 0.1 11.7427 0.1C11.5863 0.1 11.4292 0.109208 11.2883 0.118596L11.2864 0.118723C10.9009 0.137063 10.5194 0.210513 10.1416 0.33491L10.1402 0.335358M16.4381 2.6009C17.0987 3.47428 17.2695 4.91054 16.9039 6.90218L16.8953 6.94921L16.9265 6.98545C17.0814 7.16549 17.1723 7.42462 17.1864 7.77284C17.2005 8.12134 17.1373 8.55233 16.9908 9.06627L16.9907 9.06644C16.8807 9.45519 16.7454 9.86307 16.5654 10.199C16.3842 10.5372 16.1667 10.7857 15.9006 10.8813L15.8497 10.8996L15.8371 10.9522C15.735 11.3792 15.6005 11.7731 15.4386 12.1341L15.4298 12.1537V12.1751V13.5723V13.6338L15.4847 13.6615C16.2912 14.0695 18.5947 15.294 20.8551 17.0479C21.8042 17.7862 22.3735 18.9565 22.3735 20.1726V21.3958C22.3735 22.2252 21.6984 22.9 20.874 22.9H2.12685C1.30216 22.9 0.627344 22.2295 0.627344 21.4005V20.1773C0.627344 18.9565 1.19668 17.7908 2.14591 17.0525L2.14592 17.0525C4.40615 15.2941 6.70957 14.0743 7.51623 13.6662L7.57109 13.6385V13.577V12.4432V12.4178L7.55897 12.3955C7.26773 11.8593 7.04993 11.2527 6.92004 10.5847L6.91252 10.546L6.88065 10.5229C6.67681 10.3748 6.50811 10.1311 6.36476 9.82882C6.22197 9.52776 6.10851 9.17781 6.01022 8.82679L6.01019 8.82669C5.72416 7.80917 5.7519 7.17999 6.04499 6.79295M10.1402 0.335358C10.1407 0.335159 10.1411 0.334966 10.1415 0.334781C10.1424 0.334374 10.1432 0.334004 10.1439 0.333687L10.1474 0.331959M10.1402 0.335358C10.1386 0.336032 10.1368 0.336776 10.1348 0.337528C10.1317 0.338709 10.1274 0.340174 10.1221 0.341466M10.1402 0.335358L10.1287 0.339136L10.1287 0.339179C10.1265 0.33994 10.1243 0.340702 10.1221 0.341466M10.1474 0.331959C10.1466 0.33236 10.1446 0.333273 10.1419 0.334294C10.1417 0.334349 10.1416 0.334406 10.1414 0.334464C10.1386 0.335494 10.1342 0.336975 10.1284 0.338135L10.1474 0.331959ZM10.1221 0.341466C9.71023 0.484055 9.30641 0.690733 8.91527 0.957628L8.91279 0.959322L8.91276 0.959284C8.46338 1.24652 8.05108 1.58935 7.69454 1.96905L7.69328 1.97039L7.69327 1.97037C6.99384 2.68832 6.53362 3.49573 6.33599 4.3552L6.33526 4.35837L6.33521 4.35836C6.14638 5.07223 6.13265 5.78991 6.28911 6.49395L6.30338 6.55819L6.25004 6.59672C6.17252 6.6527 6.10443 6.71663 6.04499 6.79295M10.1221 0.341466L6.04499 6.79295M2.72412 17.8026L2.72422 17.8025C5.17836 15.9006 7.67399 14.6457 8.15193 14.4138L8.15215 14.4137C8.38058 14.3036 8.52368 14.0754 8.52368 13.8169V12.288C8.52368 12.2033 8.50072 12.1218 8.45736 12.0468C8.4573 12.0466 8.45723 12.0465 8.45716 12.0464L8.54371 11.9963L2.72412 17.8026ZM2.72412 17.8026C2.003 18.3629 1.57523 19.2485 1.57523 20.1726V21.3958C1.57523 21.6996 1.82177 21.9479 2.12768 21.9427H20.874C21.1739 21.9427 21.421 21.6956 21.421 21.3958V20.1726C21.421 19.2485 20.9932 18.3629 20.2721 17.8026L20.2719 17.8025C17.8235 15.906 15.3289 14.6467 14.8495 14.4141C14.6193 14.2988 14.4772 14.0742 14.4772 13.8169V12.0481C14.4772 11.9784 14.4926 11.9084 14.524 11.8416C14.7353 11.3997 14.8978 10.8828 14.9979 10.3105C15.0249 10.1563 15.1338 10.0196 15.2816 9.95737L15.2816 9.95741L15.2842 9.95624C15.3669 9.91864 15.4591 9.91022 15.5503 9.92609L15.6145 9.93726L15.6506 9.88304C15.7435 9.74368 15.8928 9.44549 16.0729 8.81047L16.0729 8.81041C16.2771 8.08864 16.245 7.78049 16.2142 7.6697L16.2019 7.62551L16.1604 7.60598C15.9614 7.5123 15.8493 7.29429 15.8957 7.07761L15.8958 7.07705C16.3927 4.69212 16.0008 3.64366 15.701 3.21681L15.7008 3.21646C15.5593 3.01683 15.4045 2.902 15.2804 2.83699C15.2186 2.8046 15.1646 2.78473 15.1241 2.77281C15.1038 2.76685 15.0867 2.76283 15.0735 2.76022C15.0654 2.75863 15.0533 2.75644 15.0421 2.75579C14.8709 2.74395 14.7429 2.65696 14.6694 2.50601L14.6696 2.50593L14.6666 2.5007L14.5795 2.54981L14.6666 2.50064L14.6665 2.50056L14.6664 2.50036L14.6661 2.49983L14.6652 2.49822L14.662 2.49279C14.6593 2.48822 14.6554 2.48178 14.6503 2.47361C14.64 2.45728 14.6248 2.43405 14.6045 2.40519C14.5639 2.34749 14.5025 2.26719 14.4183 2.17445C14.2501 1.98916 13.9903 1.75381 13.6221 1.55017C12.9495 1.1585 12.191 0.999891 11.3503 1.07161C11.0413 1.08625 10.7457 1.13954 10.4592 1.23665L10.4371 1.24414L10.4346 1.24668C10.1061 1.36242 9.77359 1.52966 9.45539 1.75287L9.44827 1.75786L9.44676 1.75937C9.44501 1.76054 9.44224 1.76241 9.43945 1.76444C9.43816 1.76538 9.43647 1.76663 9.43451 1.76818C9.05416 2.01128 8.69694 2.30204 8.38659 2.6361C7.80747 3.22985 7.43061 3.88464 7.26582 4.59099C7.07302 5.3247 7.102 6.04585 7.35344 6.74699L7.35345 6.74702C7.40762 6.89791 7.38066 7.06852 7.27999 7.19661C7.18165 7.31827 7.02874 7.38788 6.87875 7.38019L6.79029 7.37565L6.77511 7.46292C6.75271 7.59171 6.74239 7.90916 6.92794 8.56575L7.02417 8.53856M2.72412 17.8026L7.80982 10.1348C7.77837 9.94361 7.63802 9.79223 7.45577 9.7457L7.42544 9.73795L7.40494 9.7143C7.3294 9.62715 7.15043 9.35628 6.92791 8.56565L7.02417 8.53856M7.02417 8.53856C6.8407 7.88934 6.85481 7.58826 6.87363 7.48006L7.4805 9.6488C7.41935 9.57824 7.24528 9.3242 7.02417 8.53856Z" fill="#FF8A00" stroke="white" stroke-width="0.2"/>
</svg>
