<svg width="54" height="54" viewBox="0 0 54 54" fill="none" xmlns="http://www.w3.org/2000/svg">
<path d="M28.791 35.5473H43.1865C43.7263 35.5473 44.0862 35.1875 44.0862 34.6477V26.5502C44.0862 26.0104 43.7263 25.6505 43.1865 25.6505H28.791C28.2512 25.6505 27.8914 26.0104 27.8914 26.5502V34.6477C27.8913 35.1874 28.2512 35.5473 28.791 35.5473ZM29.6907 27.4499H42.2868V33.7479H29.6907V27.4499Z" fill="#FF8F0C"/>
<path d="M53.1734 14.494C52.5436 13.6842 51.7339 13.2343 50.7441 13.1444L48.5848 12.8827V10.3552V8.55581C48.5848 6.57646 46.9653 4.95697 44.986 4.95697H3.59884C1.61949 4.95686 0 6.57636 0 8.55581V10.3553V17.5531V37.3469C0 38.9719 1.092 40.3537 2.57822 40.7965C2.53288 42.6165 3.90998 44.1966 5.75827 44.3647L47.3253 49.0432C47.4152 49.0432 47.5952 49.0432 47.6851 49.0432C49.4846 49.0432 51.1041 47.6936 51.284 45.9842L53.9831 17.1032C54.0731 16.2034 53.8032 15.2137 53.1734 14.494ZM1.79947 11.255H46.7854V13.5943V16.6533H1.79947V11.255ZM3.59884 6.75634H44.9859C45.9756 6.75634 46.7853 7.56609 46.7853 8.55581V9.45549H1.79947V8.55581C1.79947 7.56609 2.60922 6.75634 3.59884 6.75634ZM1.79947 37.3467V18.4527H46.7854V37.3467C46.7854 38.3365 45.9757 39.1462 44.986 39.1462H3.68888H3.59895C2.60922 39.1462 1.79947 38.3365 1.79947 37.3467ZM52.1837 16.7432L49.4845 45.6242C49.3946 46.6139 48.4948 47.3336 47.5052 47.2437L6.02808 42.5652C5.1284 42.4753 4.49852 41.7554 4.40859 40.9457H44.9859C46.9652 40.9457 48.5847 39.3262 48.5847 37.3469V17.553V14.5839L50.6541 14.7639C51.104 14.7639 51.5538 15.0338 51.8237 15.3936C52.0937 15.7535 52.2737 16.2933 52.1837 16.7432Z" fill="#FF8F0C"/>
</svg>
