<svg width="54" height="54" viewBox="0 0 54 54" fill="none" xmlns="http://www.w3.org/2000/svg">
<path d="M27 0C12.1126 0 0 12.1116 0 27C0 41.8884 12.1126 54 27 54C41.8874 54 54 41.8884 54 27C54 12.1116 41.8874 0 27 0ZM27 51.9231C13.258 51.9231 2.07692 40.742 2.07692 27C2.07692 13.258 13.258 2.07692 27 2.07692C40.742 2.07692 51.9231 13.258 51.9231 27C51.9231 40.742 40.742 51.9231 27 51.9231Z" fill="#FF8A00"/>
<path d="M39.7233 15.9258L23.7632 33.8808L14.148 26.1889C13.7015 25.8307 13.0462 25.9044 12.689 26.3509C12.3307 26.7996 12.4034 27.4528 12.851 27.811L23.2356 36.1187C23.4267 36.2714 23.6562 36.3461 23.8847 36.3461C24.1713 36.3461 24.4568 36.2278 24.6614 35.9972L41.2768 17.3049C41.6579 16.8771 41.6195 16.2197 41.1906 15.8396C40.7607 15.4575 40.1054 15.4959 39.7233 15.9258Z" fill="#FF8A00"/>
</svg>
