<svg width="19" height="17" viewBox="0 0 19 17" fill="none" xmlns="http://www.w3.org/2000/svg">
<path d="M16.4025 7.42676e-05L3.34026 0C3.1353 0 3.71135 0.166218 3.71135 0.371188C3.71135 0.576158 3.1353 0.742376 3.34026 0.742376L16.4025 0.74245C17.4255 0.74245 18.2579 1.57499 18.2579 2.59835V11.4324C18.2579 12.4557 17.4256 13.2883 16.4025 13.2883H13.6559C13.451 13.2883 13.2848 13.4545 13.2848 13.6595V15.7328L10.9497 13.397C10.8801 13.3274 10.7857 13.2883 10.6873 13.2883H2.44915C1.50794 13.2882 0.742189 12.5222 0.742189 11.5808V2.4498C0.742189 1.50836 1.50794 0.742376 2.44919 0.742376H3.34026C3.54521 0.742376 3.71135 0.576158 3.71135 0.371188C3.71135 0.166218 3.54521 0 3.34026 0H2.44915C1.09866 3.71188e-05 0 1.09898 0 2.4498V11.5808C0 12.9316 1.09866 14.0306 2.44915 14.0306H10.5335L13.3935 16.8913C13.4645 16.9623 13.5594 17 13.656 17C13.7038 17 13.752 16.9908 13.7979 16.9718C13.9366 16.9143 14.027 16.779 14.027 16.6288V14.0306H16.4024C17.8347 14.0306 19 12.865 19 11.4323V2.59828C19 1.16564 17.8348 7.42676e-05 16.4025 7.42676e-05Z" fill="#FF8A00"/>
</svg>
