<svg width="22" height="21" viewBox="0 0 22 21" fill="none" xmlns="http://www.w3.org/2000/svg">
<path d="M0.516016 10.5522C0.516016 4.77981 5.19572 0.1 10.9418 0.1C16.4786 0.1 21.316 4.78047 21.316 10.5522C21.316 16.297 16.6883 20.9 10.9418 20.9C5.19475 20.9 0.516016 16.2708 0.516016 10.5522ZM1.75994 10.5524C1.75994 15.5954 5.90007 19.7072 10.9418 19.7072C15.9598 19.7072 20.0721 15.5422 20.0721 10.5524C20.0721 5.51158 15.9607 1.29084 10.9418 1.29084C5.89896 1.29084 1.75994 5.48528 1.75994 10.5524Z" fill="#FF8A00" stroke="white" stroke-width="0.2"/>
<path d="M10.9423 11.8603H11.0052L11.0324 11.8036L13.8674 5.89912C13.8675 5.89889 13.8676 5.89867 13.8677 5.89845C14.0105 5.61243 14.1404 5.41304 14.3057 5.28314C14.4674 5.15613 14.6732 5.08789 14.9848 5.08789C15.3958 5.08789 15.6548 5.21764 15.8124 5.3954C15.9721 5.57547 16.0396 5.8182 16.0397 6.06373C16.0397 6.06374 16.0397 6.06376 16.0397 6.06377V15.2242C16.0397 15.4456 15.9537 15.6144 15.8191 15.7293C15.6828 15.8457 15.4905 15.9117 15.2736 15.9117C15.0847 15.9117 14.8838 15.8466 14.7319 15.7269C14.5819 15.6087 14.4815 15.4393 14.4815 15.2242V8.4V8.3H14.3815H14.3548H14.2925L14.265 8.356L11.6672 13.6576C11.6671 13.6577 11.6671 13.6578 11.667 13.658C11.5791 13.8338 11.4827 13.963 11.3657 14.0487C11.2505 14.1331 11.1079 14.1808 10.9167 14.1808C10.7249 14.1808 10.5822 14.1331 10.4671 14.0487C10.3501 13.963 10.2538 13.8338 10.1657 13.6579C10.1657 13.6578 10.1656 13.6577 10.1656 13.6576L7.56731 8.35599L7.53987 8.3H7.47752H7.45086H7.35086V8.4V15.2242C7.35086 15.4392 7.25039 15.6086 7.10025 15.7268C6.94826 15.8466 6.74727 15.9117 6.55852 15.9117C6.3423 15.9117 6.15001 15.8458 6.01348 15.7294C5.87868 15.6144 5.79238 15.4456 5.79238 15.2242V6.06351C5.79238 5.81806 5.86007 5.57532 6.01994 5.39521C6.17776 5.21741 6.43692 5.08767 6.84752 5.08767C7.15995 5.08767 7.36572 5.15588 7.5272 5.28282C7.69243 5.41271 7.82207 5.61211 7.96538 5.89843L10.8265 11.8039L10.8538 11.8603H10.9165H10.9423Z" fill="#FF8A00" stroke="white" stroke-width="0.2"/>
</svg>
