<svg width="37" height="39" viewBox="0 0 37 39" fill="none" xmlns="http://www.w3.org/2000/svg">
<path d="M36.2986 36.6442L36.2985 36.6441L26.0868 26.0242C28.6782 23.3395 30.2761 19.688 30.2761 15.6698C30.2761 7.44238 23.5837 0.75 15.3563 0.75C7.1289 0.75 0.436523 7.44238 0.436523 15.6698C0.436523 23.8972 7.1289 30.5896 15.3563 30.5896C18.8844 30.5896 22.1293 29.3573 24.6854 27.3035L34.9302 37.9583C35.1167 38.1533 35.3661 38.25 35.6146 38.25C35.8515 38.25 36.0881 38.1616 36.2717 37.9856L36.272 37.9852C36.6496 37.6219 36.6609 37.0217 36.2986 36.6442ZM15.3563 28.6925C8.17556 28.6925 2.33365 22.8505 2.33365 15.6698C2.33365 8.48903 8.17556 2.64712 15.3563 2.64712C22.5371 2.64712 28.379 8.48903 28.379 15.6698C28.379 22.8505 22.5364 28.6925 15.3563 28.6925Z" fill="#262626" stroke="#262626" stroke-width="0.5"/>
</svg>
