<svg width="16" height="25" viewBox="0 0 16 25" fill="none" xmlns="http://www.w3.org/2000/svg">
<path d="M8.16182 0.0127128C7.62057 0.0989627 7.06007 0.391212 6.65282 0.798211C6.12107 1.32996 5.87207 1.92871 5.87207 2.69046C5.87682 3.42821 6.13557 4.05571 6.65757 4.57795C7.17482 5.09545 7.82157 5.3587 8.56907 5.3587C9.74757 5.3587 10.7488 4.6067 11.1368 3.43296C11.2613 3.04971 11.2566 2.31196 11.1226 1.89996C10.9693 1.43521 10.7921 1.14296 10.4423 0.798211C10.0878 0.443711 9.73807 0.228212 9.32132 0.108462C9.03857 0.0272124 8.41582 -0.0255372 8.16182 0.0127128ZM9.30207 1.15296C9.62782 1.32071 9.93932 1.63671 10.1021 1.97221C10.2026 2.17346 10.2218 2.27871 10.2218 2.66696C10.2218 3.05971 10.2026 3.16046 10.0926 3.39521C9.47932 4.7077 7.61582 4.70295 6.99307 3.38571C6.88757 3.16046 6.86857 3.05521 6.86857 2.69121C6.86857 2.32721 6.88782 2.21696 6.99307 1.99646C7.15582 1.65146 7.33332 1.44546 7.63982 1.24921C7.97507 1.03371 8.14282 0.995211 8.61707 1.00496C8.96182 1.01396 9.06732 1.03796 9.30207 1.15296Z" fill="#FF8A00"/>
<path d="M5.79093 5.48822C5.64718 5.53622 5.40768 5.64622 5.25443 5.73721C5.01968 5.88096 2.39943 8.06047 1.75743 8.64972C1.36468 9.00897 1.33118 9.12872 0.880682 11.5047C0.655682 12.693 0.473682 13.747 0.473682 13.8572C0.473682 14.3602 0.756432 14.825 1.20193 15.0452C1.55643 15.2225 2.07368 15.2225 2.42818 15.0452C2.70593 14.9062 2.93593 14.6572 3.02218 14.4032C3.05093 14.3122 3.25218 13.4405 3.46768 12.468L3.85568 10.6955L4.21493 10.4177C4.41143 10.2645 4.58368 10.14 4.59818 10.14C4.61243 10.14 4.51193 10.6957 4.37293 11.3712C4.14768 12.4587 4.11418 12.6742 4.11893 13.158V13.709L3.48168 16.0085L2.84468 18.3127L1.69493 19.975C0.348932 21.92 0.171682 22.1977 0.0661825 22.538C-0.0393175 22.859 -0.0153176 23.405 0.114182 23.6685C0.229182 23.908 0.535682 24.2002 0.813682 24.344C1.48918 24.6937 2.15968 24.459 2.88318 23.6255C3.40068 23.0315 5.45093 20.2625 5.65218 19.889C5.80068 19.6112 5.97793 19.1752 6.50493 17.786C6.53843 17.7092 6.55768 17.719 6.65343 17.8817C6.94568 18.3607 9.33618 22.035 9.81043 22.7392C10.4142 23.6302 10.8499 24.0997 11.2477 24.301C11.4872 24.4255 11.5639 24.44 11.9472 24.4352C12.2872 24.4352 12.4262 24.4112 12.6179 24.325C12.9867 24.1572 13.2407 23.9227 13.4034 23.592C13.5327 23.343 13.5519 23.247 13.5519 22.931C13.5519 22.5382 13.4657 22.179 13.2884 21.8245C13.2262 21.7047 12.1244 19.894 10.8404 17.8005C9.55668 15.707 8.49793 13.949 8.48368 13.8962C8.46443 13.786 8.85743 11.961 8.90043 11.961C8.91493 11.961 8.99618 12.0615 9.07293 12.1812C9.32168 12.5542 9.80543 12.8225 11.0604 13.2775C11.4437 13.4165 12.1429 13.68 12.6174 13.8572C13.4127 14.1542 13.5084 14.183 13.8629 14.183C14.3467 14.1877 14.5479 14.116 14.8209 13.8477C15.3287 13.335 15.2714 12.5205 14.6917 11.965C14.4809 11.759 14.3419 11.6967 12.1624 10.7962L11.0847 10.3507L10.3374 8.70272C9.92543 7.79246 9.51818 6.89671 9.43218 6.71472C9.23093 6.28847 8.72318 5.76147 8.30643 5.56022C8.01893 5.42122 8.01418 5.42122 7.03693 5.41172C6.19343 5.40197 6.01618 5.41147 5.79093 5.48822ZM7.87493 6.44622C8.13843 6.56597 8.49293 6.97322 8.61268 7.29422C8.79468 7.76847 8.76593 7.94097 8.08568 10.9925C7.73593 12.5397 7.45818 13.8907 7.46293 13.9912C7.46768 14.1492 7.85093 14.8007 9.88218 18.111C11.2092 20.2762 12.3492 22.159 12.4212 22.2977C12.7374 22.9252 12.5984 23.3565 12.0379 23.4762C11.6787 23.553 11.3242 23.2272 10.5722 22.1157C9.57093 20.6307 5.49918 14.293 5.31218 13.924C5.13018 13.56 5.05343 13.2007 5.08693 12.875C5.10618 12.7265 5.27868 11.826 5.47968 10.8677C5.67618 9.90972 5.83893 9.02822 5.83893 8.91322C5.83893 8.75022 5.81018 8.66896 5.72393 8.58272C5.58968 8.44847 5.40768 8.39097 5.25443 8.43422C5.12018 8.46772 3.12743 9.99597 3.03168 10.1347C2.99343 10.1875 2.76818 11.1025 2.53343 12.161C2.08318 14.1825 2.07343 14.2112 1.81493 14.2112C1.59468 14.2112 1.47968 14.0867 1.47968 13.8425C1.47968 13.627 2.15993 9.91922 2.25093 9.62697C2.28918 9.50722 2.66293 9.16222 3.88918 8.11797C4.76593 7.37547 5.57068 6.70472 5.68568 6.62822C6.01618 6.40322 6.22693 6.35997 6.98868 6.35997C7.56343 6.35997 7.71668 6.37447 7.87493 6.44622ZM10.4042 11.0787C10.4617 11.1362 11.1227 11.4332 11.8749 11.7445C12.6272 12.0557 13.3982 12.372 13.5852 12.4487C14.0307 12.6355 14.1839 12.784 14.1649 13.0092C14.1504 13.177 14.1457 13.1817 13.9254 13.196C13.7577 13.2055 13.5804 13.1625 13.1829 13.014C12.8999 12.9037 12.2437 12.6642 11.7312 12.4822C11.2187 12.2955 10.6054 12.051 10.3659 11.9362L9.93468 11.7302L9.55618 11.165L9.17768 10.6045L9.23993 10.3362C9.26868 10.1877 9.34043 9.87622 9.39318 9.64647L9.48893 9.22497L9.89618 10.1017C10.1167 10.5852 10.3467 11.026 10.4042 11.0787ZM5.35018 15.8547L5.88193 16.6835L5.41243 17.905C5.15368 18.5757 4.88068 19.2462 4.80893 19.39C4.62693 19.7492 2.34193 22.7912 1.98268 23.1552C1.58018 23.5575 1.35043 23.6055 1.08218 23.3325C0.909682 23.1647 0.914432 22.9635 1.09168 22.633C1.17318 22.4845 1.79593 21.5552 2.48093 20.5587C3.49643 19.093 3.74568 18.7 3.81743 18.4605C3.86543 18.2975 4.09518 17.4592 4.32993 16.597C4.56943 15.73 4.77543 15.0257 4.78993 15.0257C4.80893 15.026 5.05793 15.3997 5.35018 15.8547Z" fill="#FF8A00"/>
</svg>
