<svg width="34" height="35" viewBox="0 0 34 35" fill="none" xmlns="http://www.w3.org/2000/svg">
<g clip-path="url(#clip0)">
<path d="M21.9585 10.2085C15.3081 10.2085 9.91699 15.7582 9.91699 22.6041C9.91699 29.45 15.3082 34.9998 21.9585 34.9998C28.6088 34.9998 34 29.45 34 22.6041C34 15.7582 28.6089 10.2085 21.9585 10.2085ZM21.9585 33.5415C16.0905 33.5415 11.3336 28.6447 11.3336 22.6041C11.3336 16.5636 16.0905 11.6668 21.9585 11.6668C27.8265 11.6668 32.5833 16.5636 32.5833 22.6041C32.5833 28.6447 27.8265 33.5415 21.9585 33.5415Z" fill="#FF8F0C"/>
<path d="M18.5937 26.6801L15.9091 23.9166L14.875 24.9447L18.0625 28.2259C18.3387 28.5086 18.7849 28.5086 19.0612 28.2259L28.9777 18.0177L27.979 16.9896L18.5937 26.6801Z" fill="#FF8F0C"/>
<path d="M12.0416 2.91687H10.625V4.37516H12.0416V2.91687Z" fill="#FF8F0C"/>
<path d="M15.5836 2.91687H14.167V4.37516H15.5836V2.91687Z" fill="#FF8F0C"/>
<path d="M1.41707 32.813V8.32068L7.08363 2.48745V6.56346C7.08363 6.96616 6.76648 7.29264 6.37529 7.29264H4.25032V8.75093H6.37529C7.54887 8.75093 8.50026 7.77155 8.50026 6.56346V1.45934H23.3751C23.7663 1.45934 24.0834 1.78582 24.0834 2.18852V8.02175H25.5V2.18845C25.5 0.980348 24.5486 0.000976562 23.3751 0.000976562H7.74948C7.68679 0.00466792 7.62484 0.0169041 7.56534 0.0374116H7.50159C7.42529 0.0730947 7.3557 0.122518 7.2962 0.18322L0.21294 7.47488C0.0705668 7.6183 -0.00659625 7.81681 0.00044272 8.02175V32.8131C0.00044272 34.0212 0.951832 35.0006 2.12541 35.0006H13.4586V33.5422H2.12541C1.73422 33.5422 1.41707 33.2157 1.41707 32.813Z" fill="#FF8F0C"/>
</g>
<defs>
<clipPath id="clip0">
<rect width="34" height="35" fill="white"/>
</clipPath>
</defs>
</svg>
