<svg width="22" height="20" viewBox="0 0 22 20" fill="none" xmlns="http://www.w3.org/2000/svg">
<path d="M6.91295 9.96299C5.79501 8.71982 4.88908 7.35015 4.21093 5.90228H5.74083C6.32199 7.01645 7.04918 8.07042 7.92218 9.04199L8.05225 9.18674L8.18243 9.04209C9.57303 7.49696 10.5918 5.72981 11.2435 3.86641L11.3249 3.63364H11.0783H0.591016V2.08411H7.09782H7.27282V1.90911V0.175H8.83193V1.90911V2.08411H9.00693H15.5138V3.64796H12.8919H12.7629L12.7248 3.77124C12.0357 5.99871 10.8657 8.10378 9.22346 9.93578L9.19819 9.96105L9.0737 10.0855L9.19892 10.2093L11.5429 12.5256L10.9523 14.107L8.17614 11.3308L8.0524 11.2071L7.92866 11.3308L3.27965 15.9798L2.17718 14.8773L6.90583 10.2045L7.02458 10.0871L6.91295 9.96299Z" fill="#FF8A00" stroke="white" stroke-width="0.35"/>
<path d="M13.899 16.0523H13.7777L13.7351 16.1658L12.7039 18.9159H11.1685L15.3328 7.81135H16.9993L21.1635 18.9159H19.6282L18.5969 16.1658L18.5544 16.0523H18.4331H13.899ZM14.451 14.2567L14.3624 14.4932H14.6149H17.7172H17.9697L17.8811 14.2567L16.3299 10.1188L16.1661 9.68164L16.0022 10.1188L14.451 14.2567Z" fill="#FF8A00" stroke="white" stroke-width="0.35"/>
</svg>
