<svg width="34" height="34" viewBox="0 0 34 34" fill="none" xmlns="http://www.w3.org/2000/svg">
<g clip-path="url(#clip0)">
<path d="M6.37395 25.9817L9.71813 31.7744C10.4398 33.0257 12.0631 33.489 13.3469 32.7469C14.6171 32.0128 15.0537 30.3897 14.3188 29.1184L12.3266 25.6673L14.0519 24.6712C14.3694 24.4876 14.4784 24.0816 14.295 23.7641L13.4314 22.2684C13.5344 22.2484 14.2114 22.1156 26.1508 19.7735C27.6268 19.6934 28.5111 18.0791 27.7656 16.7886L25.5586 12.9661L26.969 10.8299C27.1075 10.6198 27.1158 10.3498 26.99 10.1319L25.6619 7.83154C25.536 7.61365 25.2971 7.48602 25.0468 7.50081L22.492 7.65411L20.042 3.41034C19.6871 2.79556 19.0513 2.42332 18.3416 2.41451C18.333 2.41425 18.3247 2.41425 18.3162 2.41425C17.6303 2.41425 17.0078 2.75562 16.6389 3.33278L7.96407 14.3837L2.32447 17.6397C0.106343 18.9198 -0.661998 21.7654 0.623067 23.9895C1.79711 26.0232 4.2723 26.8232 6.37395 25.9817ZM13.1689 29.7827C13.5357 30.4172 13.3186 31.2291 12.6823 31.5967C12.0439 31.9658 11.2309 31.7391 10.8683 31.1106L7.54799 25.3589L9.84835 24.0308C13.6911 30.6875 13.1072 29.6761 13.1689 29.7827ZM11.6626 24.5169L10.9985 23.3667L12.1487 22.7027L12.8128 23.8528L11.6626 24.5169ZM24.7169 8.85098L25.6346 10.4406L24.8162 11.68L23.2344 8.93996L24.7169 8.85098ZM17.7497 4.06091C17.9279 3.76935 18.2106 3.73926 18.3253 3.74237C18.4386 3.74367 18.7211 3.77895 18.8915 4.07414L26.6154 17.4527C26.867 17.8882 26.5612 18.4358 26.0567 18.4482C25.9661 18.4503 25.9244 18.4667 25.6925 18.51L17.5222 4.35844C17.6936 4.13795 17.7157 4.11668 17.7497 4.06091ZM16.6384 5.48424L24.3148 18.7803L12.7295 21.0526L9.20685 14.9513L16.6384 5.48424ZM1.77324 23.3255C1.48168 22.8209 1.3276 22.2482 1.3276 21.6687C1.3276 20.4843 1.96416 19.3813 2.98853 18.7899L8.16433 15.8016L11.4846 21.5525L6.30884 24.541C4.72313 25.4562 2.68866 24.9109 1.77324 23.3255Z" fill="#FF8A00"/>
<path d="M33.0133 3.83468L29.313 5.8938C28.9926 6.07226 28.8772 6.47667 29.0556 6.79703C29.2336 7.11712 29.6377 7.23308 29.9589 7.05435L33.6589 4.99524C33.9796 4.81677 34.0947 4.41237 33.9163 4.09201C33.7381 3.77139 33.3336 3.65622 33.0133 3.83468Z" fill="#FF8A00"/>
<path d="M32.6247 10.7124L30.0589 10.025C29.7046 9.93006 29.3404 10.1402 29.2454 10.4945C29.1505 10.8489 29.3609 11.2128 29.7152 11.3077L32.2812 11.9951C32.6376 12.0909 33 11.8774 33.0944 11.5256C33.1894 11.1713 32.979 10.8071 32.6247 10.7124Z" fill="#FF8A00"/>
<path d="M26.1778 1.42201L25.4896 3.98798C25.3947 4.34232 25.6048 4.70626 25.9591 4.80146C26.3132 4.89614 26.6774 4.68655 26.7726 4.33195L27.4605 1.76597C27.5555 1.41163 27.3453 1.04744 26.991 0.952495C26.6369 0.857555 26.2727 1.06767 26.1778 1.42201Z" fill="#FF8A00"/>
</g>
<defs>
<clipPath id="clip0">
<rect width="34" height="34" fill="white"/>
</clipPath>
</defs>
</svg>
