<svg width="174" height="23" viewBox="0 0 174 23" fill="none" xmlns="http://www.w3.org/2000/svg">
<path d="M1.3 18C0.916667 18 0.608333 17.8917 0.375 17.675C0.158333 17.4583 0.0500001 17.1667 0.0500001 16.8V1.55C0.0500001 1.16667 0.166667 0.858332 0.4 0.624999C0.633333 0.374999 0.941667 0.249999 1.325 0.249999C1.725 0.249999 2.04167 0.366666 2.275 0.599999C2.50833 0.833332 2.625 1.15 2.625 1.55V15.85H10.225C10.6083 15.85 10.9 15.9417 11.1 16.125C11.3167 16.3083 11.425 16.575 11.425 16.925C11.425 17.275 11.3167 17.5417 11.1 17.725C10.9 17.9083 10.6083 18 10.225 18H1.3ZM14.6969 18.125C14.3302 18.125 14.0219 18.025 13.7719 17.825C13.5385 17.625 13.4219 17.325 13.4219 16.925V6.775C13.4219 6.375 13.5385 6.075 13.7719 5.875C14.0219 5.65833 14.3302 5.55 14.6969 5.55C15.0635 5.55 15.3635 5.65833 15.5969 5.875C15.8302 6.075 15.9469 6.375 15.9469 6.775V16.925C15.9469 17.325 15.8302 17.625 15.5969 17.825C15.3635 18.025 15.0635 18.125 14.6969 18.125ZM14.6969 3.1C14.2135 3.1 13.8302 2.96667 13.5469 2.7C13.2635 2.43333 13.1219 2.08333 13.1219 1.65C13.1219 1.21667 13.2635 0.874999 13.5469 0.624999C13.8302 0.358332 14.2135 0.224999 14.6969 0.224999C15.1635 0.224999 15.5385 0.358332 15.8219 0.624999C16.1219 0.874999 16.2719 1.21667 16.2719 1.65C16.2719 2.08333 16.1302 2.43333 15.8469 2.7C15.5635 2.96667 15.1802 3.1 14.6969 3.1ZM26.0516 5.5C28.9682 5.5 30.4266 7.14167 30.4266 10.425V16.925C30.4266 17.3083 30.3099 17.6083 30.0766 17.825C29.8599 18.025 29.5516 18.125 29.1516 18.125C28.7682 18.125 28.4599 18.0167 28.2266 17.8C28.0099 17.5833 27.9016 17.2917 27.9016 16.925V10.55C27.9016 9.51667 27.6932 8.75833 27.2766 8.275C26.8766 7.79167 26.2432 7.55 25.3766 7.55C24.3599 7.55 23.5432 7.86667 22.9266 8.5C22.3099 9.13333 22.0016 9.98333 22.0016 11.05V16.925C22.0016 17.2917 21.8849 17.5833 21.6516 17.8C21.4349 18.0167 21.1349 18.125 20.7516 18.125C20.3682 18.125 20.0599 18.0167 19.8266 17.8C19.5932 17.5833 19.4766 17.2917 19.4766 16.925V6.75C19.4766 6.4 19.5932 6.11667 19.8266 5.9C20.0766 5.66667 20.3849 5.55 20.7516 5.55C21.1182 5.55 21.4099 5.65833 21.6266 5.875C21.8432 6.09167 21.9516 6.375 21.9516 6.725V7.75C22.3516 7.01667 22.9099 6.45833 23.6266 6.075C24.3432 5.69167 25.1516 5.5 26.0516 5.5ZM43.9809 5.55C44.3642 5.55 44.6642 5.66667 44.8809 5.9C45.1142 6.11667 45.2309 6.40833 45.2309 6.775V17.025C45.2309 18.8917 44.7309 20.3 43.7309 21.25C42.7475 22.2 41.2892 22.675 39.3559 22.675C37.5559 22.675 36.0559 22.3333 34.8559 21.65C34.2392 21.3 33.9309 20.8833 33.9309 20.4C33.9309 20.1167 34.0059 19.8833 34.1559 19.7C34.3225 19.5167 34.5225 19.425 34.7559 19.425C34.9725 19.425 35.3142 19.55 35.7809 19.8C36.3809 20.0833 36.9392 20.3 37.4559 20.45C37.9725 20.6167 38.5892 20.7 39.3059 20.7C41.6059 20.7 42.7559 19.5417 42.7559 17.225V15.3C42.4059 16.0333 41.8725 16.6083 41.1559 17.025C40.4392 17.425 39.6059 17.625 38.6559 17.625C37.5892 17.625 36.6392 17.375 35.8059 16.875C34.9725 16.375 34.3225 15.6667 33.8559 14.75C33.4059 13.8333 33.1809 12.775 33.1809 11.575C33.1809 10.375 33.4142 9.31667 33.8809 8.4C34.3475 7.48333 34.9892 6.775 35.8059 6.275C36.6392 5.75833 37.5892 5.5 38.6559 5.5C39.5892 5.5 40.4059 5.7 41.1059 6.1C41.8225 6.5 42.3642 7.06667 42.7309 7.8V6.75C42.7309 6.38333 42.8392 6.09167 43.0559 5.875C43.2892 5.65833 43.5975 5.55 43.9809 5.55ZM39.2559 15.625C40.3392 15.625 41.1892 15.2667 41.8059 14.55C42.4225 13.8333 42.7309 12.8417 42.7309 11.575C42.7309 10.325 42.4225 9.34167 41.8059 8.625C41.2059 7.89167 40.3559 7.525 39.2559 7.525C38.1559 7.525 37.2892 7.88333 36.6559 8.6C36.0392 9.31667 35.7309 10.3083 35.7309 11.575C35.7309 12.8417 36.0475 13.8333 36.6809 14.55C37.3142 15.2667 38.1725 15.625 39.2559 15.625ZM58.199 5.55C58.5824 5.55 58.8824 5.65833 59.099 5.875C59.3324 6.09167 59.449 6.39167 59.449 6.775V16.95C59.449 17.3 59.3324 17.5833 59.099 17.8C58.8657 18.0167 58.5574 18.125 58.174 18.125C57.824 18.125 57.5407 18.025 57.324 17.825C57.1074 17.6083 56.999 17.325 56.999 16.975V16.025C56.6157 16.725 56.0824 17.2583 55.399 17.625C54.7324 17.9917 53.9824 18.175 53.149 18.175C50.1824 18.175 48.699 16.5417 48.699 13.275V6.775C48.699 6.39167 48.8074 6.09167 49.024 5.875C49.2574 5.65833 49.574 5.55 49.974 5.55C50.3574 5.55 50.6574 5.65833 50.874 5.875C51.1074 6.09167 51.224 6.39167 51.224 6.775V13.25C51.224 14.2333 51.424 14.9583 51.824 15.425C52.224 15.8917 52.8407 16.125 53.674 16.125C54.6574 16.125 55.4407 15.8083 56.024 15.175C56.624 14.5417 56.924 13.7 56.924 12.65V6.775C56.924 6.40833 57.0407 6.11667 57.274 5.9C57.5074 5.66667 57.8157 5.55 58.199 5.55ZM68.1074 5.5C69.7241 5.5 70.9241 5.90833 71.7074 6.725C72.5074 7.54167 72.9074 8.78333 72.9074 10.45V16.925C72.9074 17.3083 72.7991 17.6083 72.5824 17.825C72.3658 18.025 72.0658 18.125 71.6824 18.125C71.3158 18.125 71.0241 18.0167 70.8074 17.8C70.5908 17.5833 70.4824 17.2917 70.4824 16.925V16C70.1658 16.7 69.6908 17.2417 69.0574 17.625C68.4408 17.9917 67.7158 18.175 66.8824 18.175C66.0824 18.175 65.3491 18.0167 64.6824 17.7C64.0324 17.3667 63.5158 16.9167 63.1324 16.35C62.7491 15.7833 62.5574 15.1417 62.5574 14.425C62.5408 13.525 62.7658 12.825 63.2324 12.325C63.6991 11.8083 64.4574 11.4417 65.5074 11.225C66.5574 10.9917 68.0158 10.875 69.8824 10.875H70.4574V10.15C70.4574 9.21667 70.2658 8.54167 69.8824 8.125C69.4991 7.70833 68.8824 7.5 68.0324 7.5C67.4491 7.5 66.8991 7.575 66.3824 7.725C65.8658 7.875 65.2991 8.09167 64.6824 8.375C64.2324 8.625 63.9158 8.75 63.7324 8.75C63.4824 8.75 63.2741 8.65833 63.1074 8.475C62.9574 8.29167 62.8824 8.05833 62.8824 7.775C62.8824 7.525 62.9491 7.30833 63.0824 7.125C63.2324 6.925 63.4658 6.73333 63.7824 6.55C64.3658 6.23333 65.0491 5.98333 65.8324 5.8C66.6158 5.6 67.3741 5.5 68.1074 5.5ZM67.3324 16.3C68.2491 16.3 68.9991 15.9917 69.5824 15.375C70.1658 14.7417 70.4574 13.9333 70.4574 12.95V12.3H70.0074C68.7074 12.3 67.7074 12.3583 67.0074 12.475C66.3074 12.5917 65.8074 12.7917 65.5074 13.075C65.2074 13.3417 65.0574 13.7333 65.0574 14.25C65.0574 14.85 65.2741 15.3417 65.7074 15.725C66.1408 16.1083 66.6824 16.3 67.3324 16.3Z" fill="white"/>
<path d="M80.6863 18.125C80.303 18.125 79.9947 18.0083 79.7613 17.775C79.528 17.5417 79.4113 17.225 79.4113 16.825V1.625C79.4113 1.24167 79.5197 0.941666 79.7363 0.724999C79.9697 0.491666 80.2863 0.374999 80.6863 0.374999H86.7113C88.578 0.374999 90.028 0.833332 91.0613 1.75C92.0947 2.66667 92.6113 3.96667 92.6113 5.65C92.6113 7.31667 92.0947 8.61667 91.0613 9.55C90.028 10.4833 88.578 10.95 86.7113 10.95H81.9863V16.825C81.9863 17.225 81.8697 17.5417 81.6363 17.775C81.4197 18.0083 81.103 18.125 80.6863 18.125ZM86.4363 8.875C88.903 8.875 90.1363 7.8 90.1363 5.65C90.1363 3.51667 88.903 2.45 86.4363 2.45H81.9863V8.875H86.4363ZM96.6949 18.125C96.3283 18.125 96.0199 18.025 95.7699 17.825C95.5366 17.625 95.4199 17.325 95.4199 16.925V1.475C95.4199 1.075 95.5366 0.774999 95.7699 0.574999C96.0199 0.358332 96.3283 0.249999 96.6949 0.249999C97.0616 0.249999 97.3616 0.358332 97.5949 0.574999C97.8283 0.774999 97.9449 1.075 97.9449 1.475V16.925C97.9449 17.325 97.8283 17.625 97.5949 17.825C97.3616 18.025 97.0616 18.125 96.6949 18.125ZM106.6 5.5C108.216 5.5 109.416 5.90833 110.2 6.725C111 7.54167 111.4 8.78333 111.4 10.45V16.925C111.4 17.3083 111.291 17.6083 111.075 17.825C110.858 18.025 110.558 18.125 110.175 18.125C109.808 18.125 109.516 18.0167 109.3 17.8C109.083 17.5833 108.975 17.2917 108.975 16.925V16C108.658 16.7 108.183 17.2417 107.55 17.625C106.933 17.9917 106.208 18.175 105.375 18.175C104.575 18.175 103.841 18.0167 103.175 17.7C102.525 17.3667 102.008 16.9167 101.625 16.35C101.241 15.7833 101.05 15.1417 101.05 14.425C101.033 13.525 101.258 12.825 101.725 12.325C102.191 11.8083 102.95 11.4417 104 11.225C105.05 10.9917 106.508 10.875 108.375 10.875H108.95V10.15C108.95 9.21667 108.758 8.54167 108.375 8.125C107.991 7.70833 107.375 7.5 106.525 7.5C105.941 7.5 105.391 7.575 104.875 7.725C104.358 7.875 103.791 8.09167 103.175 8.375C102.725 8.625 102.408 8.75 102.225 8.75C101.975 8.75 101.766 8.65833 101.6 8.475C101.45 8.29167 101.375 8.05833 101.375 7.775C101.375 7.525 101.441 7.30833 101.575 7.125C101.725 6.925 101.958 6.73333 102.275 6.55C102.858 6.23333 103.541 5.98333 104.325 5.8C105.108 5.6 105.866 5.5 106.6 5.5ZM105.825 16.3C106.741 16.3 107.491 15.9917 108.075 15.375C108.658 14.7417 108.95 13.9333 108.95 12.95V12.3H108.5C107.2 12.3 106.2 12.3583 105.5 12.475C104.8 12.5917 104.3 12.7917 104 13.075C103.7 13.3417 103.55 13.7333 103.55 14.25C103.55 14.85 103.766 15.3417 104.2 15.725C104.633 16.1083 105.175 16.3 105.825 16.3ZM120.829 16.2C121.195 16.2333 121.454 16.3333 121.604 16.5C121.77 16.65 121.854 16.8667 121.854 17.15C121.854 17.4833 121.72 17.7417 121.454 17.925C121.204 18.0917 120.829 18.1583 120.329 18.125L119.654 18.075C118.304 17.975 117.295 17.5667 116.629 16.85C115.962 16.1167 115.629 15.0417 115.629 13.625V7.75H114.129C113.395 7.75 113.029 7.425 113.029 6.775C113.029 6.475 113.12 6.24167 113.304 6.075C113.504 5.89167 113.779 5.8 114.129 5.8H115.629V3.225C115.629 2.84167 115.737 2.54167 115.954 2.325C116.187 2.10833 116.495 2 116.879 2C117.262 2 117.57 2.10833 117.804 2.325C118.037 2.54167 118.154 2.84167 118.154 3.225V5.8H120.629C120.979 5.8 121.245 5.89167 121.429 6.075C121.629 6.24167 121.729 6.475 121.729 6.775C121.729 7.09167 121.629 7.33333 121.429 7.5C121.245 7.66667 120.979 7.75 120.629 7.75H118.154V13.8C118.154 14.5833 118.312 15.1583 118.629 15.525C118.962 15.8917 119.462 16.1 120.129 16.15L120.829 16.2ZM129.612 2.3C128.779 2.36667 128.162 2.63333 127.762 3.1C127.362 3.55 127.162 4.21667 127.162 5.1V5.8H129.637C129.987 5.8 130.254 5.89167 130.437 6.075C130.637 6.24167 130.737 6.475 130.737 6.775C130.737 7.075 130.637 7.31667 130.437 7.5C130.254 7.66667 129.987 7.75 129.637 7.75H127.162V16.9C127.162 17.3 127.037 17.6083 126.787 17.825C126.554 18.025 126.254 18.125 125.887 18.125C125.521 18.125 125.221 18.025 124.987 17.825C124.754 17.6083 124.637 17.3 124.637 16.9V7.75H123.137C122.787 7.75 122.512 7.66667 122.312 7.5C122.129 7.31667 122.037 7.075 122.037 6.775C122.037 6.475 122.129 6.24167 122.312 6.075C122.512 5.89167 122.787 5.8 123.137 5.8H124.637V5.475C124.637 3.94167 125.029 2.74167 125.812 1.875C126.596 0.991666 127.704 0.499999 129.137 0.399999L129.787 0.349999C130.321 0.316666 130.704 0.374999 130.937 0.524998C131.187 0.674999 131.312 0.916666 131.312 1.25C131.312 1.83333 130.962 2.16667 130.262 2.25L129.612 2.3ZM137.585 18.175C136.385 18.175 135.327 17.9167 134.41 17.4C133.51 16.8833 132.81 16.15 132.31 15.2C131.827 14.2333 131.585 13.1167 131.585 11.85C131.585 10.5667 131.827 9.45 132.31 8.5C132.81 7.53333 133.51 6.79167 134.41 6.275C135.327 5.75833 136.385 5.5 137.585 5.5C138.785 5.5 139.835 5.75833 140.735 6.275C141.652 6.79167 142.352 7.53333 142.835 8.5C143.335 9.45 143.585 10.5667 143.585 11.85C143.585 13.1167 143.335 14.2333 142.835 15.2C142.352 16.15 141.652 16.8833 140.735 17.4C139.835 17.9167 138.785 18.175 137.585 18.175ZM137.585 16.175C138.702 16.175 139.552 15.8083 140.135 15.075C140.735 14.3417 141.035 13.2667 141.035 11.85C141.035 10.45 140.735 9.38333 140.135 8.65C139.535 7.9 138.685 7.525 137.585 7.525C136.485 7.525 135.635 7.9 135.035 8.65C134.435 9.38333 134.135 10.45 134.135 11.85C134.135 13.2667 134.427 14.3417 135.01 15.075C135.61 15.8083 136.468 16.175 137.585 16.175ZM152.796 5.55C153.596 5.5 153.996 5.84167 153.996 6.575C153.996 6.94167 153.905 7.21667 153.721 7.4C153.538 7.58333 153.221 7.69167 152.771 7.725L152.021 7.8C150.971 7.9 150.188 8.26667 149.671 8.9C149.171 9.53333 148.921 10.3 148.921 11.2V16.925C148.921 17.325 148.805 17.625 148.571 17.825C148.338 18.025 148.038 18.125 147.671 18.125C147.305 18.125 146.996 18.025 146.746 17.825C146.513 17.625 146.396 17.325 146.396 16.925V6.75C146.396 6.36667 146.513 6.075 146.746 5.875C146.996 5.65833 147.305 5.55 147.671 5.55C148.005 5.55 148.28 5.65833 148.496 5.875C148.73 6.075 148.846 6.35833 148.846 6.725V7.925C149.18 7.19167 149.663 6.63333 150.296 6.25C150.93 5.86667 151.646 5.64167 152.446 5.575L152.796 5.55ZM169.552 5.5C172.285 5.5 173.652 7.14167 173.652 10.425V16.925C173.652 17.3083 173.535 17.6083 173.302 17.825C173.068 18.025 172.76 18.125 172.377 18.125C172.01 18.125 171.71 18.025 171.477 17.825C171.243 17.6083 171.127 17.3083 171.127 16.925V10.45C171.127 9.43333 170.943 8.7 170.577 8.25C170.21 7.78333 169.635 7.55 168.852 7.55C167.935 7.55 167.21 7.86667 166.677 8.5C166.143 9.11667 165.877 9.96667 165.877 11.05V16.925C165.877 17.3083 165.76 17.6083 165.527 17.825C165.293 18.025 164.985 18.125 164.602 18.125C164.235 18.125 163.935 18.025 163.702 17.825C163.468 17.6083 163.352 17.3083 163.352 16.925V10.45C163.352 9.43333 163.168 8.7 162.802 8.25C162.435 7.78333 161.86 7.55 161.077 7.55C160.16 7.55 159.427 7.86667 158.877 8.5C158.343 9.11667 158.077 9.96667 158.077 11.05V16.925C158.077 17.3083 157.96 17.6083 157.727 17.825C157.493 18.025 157.193 18.125 156.827 18.125C156.46 18.125 156.152 18.025 155.902 17.825C155.668 17.6083 155.552 17.3083 155.552 16.925V6.75C155.552 6.38333 155.677 6.09167 155.927 5.875C156.177 5.65833 156.477 5.55 156.827 5.55C157.177 5.55 157.46 5.65833 157.677 5.875C157.91 6.075 158.027 6.35833 158.027 6.725V7.65C158.393 6.95 158.902 6.41667 159.552 6.05C160.202 5.68333 160.952 5.5 161.802 5.5C162.735 5.5 163.502 5.69167 164.102 6.075C164.718 6.45833 165.177 7.05 165.477 7.85C165.843 7.13333 166.385 6.56667 167.102 6.15C167.818 5.71667 168.635 5.5 169.552 5.5Z" fill="#FF8A00"/>
</svg>
