<svg width="42" height="42" viewBox="0 0 42 42" fill="none" xmlns="http://www.w3.org/2000/svg">
<path d="M21 42C32.598 42 42 32.598 42 21C42 9.40202 32.598 0 21 0C9.40202 0 0 9.40202 0 21C0 32.598 9.40202 42 21 42Z" fill="#4A76A8"/>
<path fill-rule="evenodd" clip-rule="evenodd" d="M20.2065 30.2102H21.8548C21.8548 30.2102 22.3526 30.1556 22.6068 29.8815C22.8408 29.63 22.8333 29.1575 22.8333 29.1575C22.8333 29.1575 22.8011 26.9459 23.8276 26.6202C24.8394 26.2994 26.1388 28.7577 27.516 29.703C28.5574 30.4183 29.3488 30.2615 29.3488 30.2615L33.0312 30.2102C33.0312 30.2102 34.9576 30.0915 34.0442 28.5769C33.9693 28.453 33.5122 27.4565 31.3062 25.4089C28.9973 23.2657 29.3065 23.6124 32.0879 19.9052C33.7818 17.6476 34.459 16.2692 34.2475 15.6789C34.0457 15.1166 32.7999 15.2652 32.7999 15.2652L28.6536 15.2911C28.6536 15.2911 28.3463 15.2491 28.1183 15.3854C27.8956 15.519 27.7522 15.8305 27.7522 15.8305C27.7522 15.8305 27.096 17.5776 26.2207 19.0633C24.3745 22.1985 23.6363 22.3639 23.3345 22.1693C22.6327 21.7156 22.8078 20.3466 22.8078 19.374C22.8078 16.3359 23.2687 15.0691 21.9105 14.7412C21.4598 14.6322 21.1282 14.5603 19.9756 14.5487C18.4961 14.5334 17.244 14.5532 16.5349 14.9006C16.0633 15.1316 15.6994 15.6463 15.921 15.6759C16.195 15.7126 16.8157 15.8432 17.1448 16.2913C17.5696 16.8693 17.5547 18.1675 17.5547 18.1675C17.5547 18.1675 17.7987 21.744 16.9845 22.1884C16.4256 22.4931 15.659 21.8709 14.013 19.0267C13.1696 17.5697 12.5328 15.9593 12.5328 15.9593C12.5328 15.9593 12.41 15.6583 12.1911 15.4973C11.9253 15.3023 11.5539 15.2402 11.5539 15.2402L7.61393 15.266C7.61393 15.266 7.02247 15.2825 6.80535 15.5396C6.61219 15.7684 6.79 16.2415 6.79 16.2415C6.79 16.2415 9.8746 23.4581 13.3672 27.0949C16.5698 30.4292 20.2065 30.2102 20.2065 30.2102Z" fill="white"/>
</svg>
