<svg width="89" height="38" viewBox="0 0 89 38" fill="none" xmlns="http://www.w3.org/2000/svg">
<g clip-path="url(#clip0)">
<path d="M15.2154 13.3452L13.2842 24.6783H16.3729L18.3057 13.3452H15.2154Z" fill="#1B1E6F"/>
<path d="M10.6947 13.3581L7.66961 21.0869L7.34707 19.92C6.75047 18.5138 5.05678 16.4944 3.06836 15.2218L5.83451 24.6729L9.10273 24.6674L13.9669 13.3557L10.6947 13.3581Z" fill="#1B1E6F"/>
<path d="M6.17419 14.169C5.99465 13.4787 5.47431 13.2729 4.82845 13.2483H0.0397207L0 13.4739C3.7266 14.3779 6.19246 16.5562 7.21566 19.1754L6.17419 14.169Z" fill="#1B1E6F"/>
<path d="M24.5656 15.5182C25.5761 15.5023 26.3086 15.7232 26.8774 15.952L27.1562 16.0831L27.5741 13.6267C26.9624 13.3971 26.0035 13.1509 24.8071 13.1509C21.755 13.1509 19.6037 14.6881 19.5871 16.891C19.5672 18.5187 21.1195 19.4275 22.292 19.9701C23.4956 20.5262 23.8991 20.8797 23.8936 21.3762C23.884 22.1349 22.9339 22.4829 22.0466 22.4829C20.8097 22.4829 20.1527 22.3121 19.1382 21.8894L18.7402 21.7083L18.3057 24.2449C19.0286 24.5618 20.3624 24.8343 21.7471 24.8486C24.9938 24.8486 27.1038 23.3297 27.126 20.9759C27.1396 19.6881 26.3157 18.7054 24.5307 17.8991C23.4503 17.3732 22.7893 17.0236 22.7957 16.493C22.7957 16.0219 23.3566 15.5182 24.5656 15.5182Z" fill="#1B1E6F"/>
<path d="M35.5009 13.3582H33.1145C32.3733 13.3582 31.822 13.5599 31.4963 14.2987L26.9102 24.6849H30.1537C30.1537 24.6849 30.6828 23.2883 30.8028 22.9825C31.1579 22.9825 34.3093 22.9873 34.7582 22.9873C34.8503 23.3829 35.1347 24.6849 35.1347 24.6849H38.0002L35.5009 13.3582ZM31.6917 20.6628C31.9459 20.0122 32.9223 17.4955 32.9223 17.4955C32.9056 17.5264 33.1741 16.8401 33.3338 16.4135L33.5419 17.3906C33.5419 17.3906 34.1338 20.0964 34.2577 20.6628H31.6917Z" fill="#1B1E6F"/>
</g>
<path d="M63.3331 30.2052C69.5215 30.2052 74.5382 25.1885 74.5382 19.0001C74.5382 12.8116 69.5215 7.79492 63.3331 7.79492C57.1446 7.79492 52.1279 12.8116 52.1279 19.0001C52.1279 25.1885 57.1446 30.2052 63.3331 30.2052Z" fill="#EE0005"/>
<path d="M76.9747 30.2052C83.1631 30.2052 88.1798 25.1885 88.1798 19.0001C88.1798 12.8116 83.1631 7.79492 76.9747 7.79492C70.7862 7.79492 65.7695 12.8116 65.7695 19.0001C65.7695 25.1885 70.7862 30.2052 76.9747 30.2052Z" fill="#F9A000"/>
<path d="M65.7695 18.9999C65.7695 22.5532 67.4829 25.7193 70.1541 27.7692C72.8253 25.7192 74.5388 22.5532 74.5388 18.9999C74.5388 15.4467 72.8254 12.2806 70.1541 10.2307C67.483 12.2807 65.7695 15.4468 65.7695 18.9999Z" fill="#FF6300"/>
<defs>
<clipPath id="clip0">
<rect width="38" height="38" fill="white"/>
</clipPath>
</defs>
</svg>
